<?xml version="1.0" standalone="no"?>
<!DOCTYPE svg PUBLIC "-//W3C//DTD SVG 20010904//EN"
 "http://www.w3.org/TR/2001/REC-SVG-20010904/DTD/svg10.dtd">
<svg version="1.0" xmlns="http://www.w3.org/2000/svg"
 width="1000.000000pt" height="1000.000000pt" viewBox="0 0 1000.000000 1000.000000"
 preserveAspectRatio="xMidYMid meet">
<metadata>
Created by potrace 1.11, written by Peter Selinger 2001-2013
</metadata>
<g transform="translate(0.000000,1000.000000) scale(0.100000,-0.100000)"
fill="#000000" stroke="none">
<path d="M4920 8645 l0 -1355 -175 0 -175 0 0 -75 0 -75 -70 0 -70 0 0 -70 0
-70 -70 0 -70 0 0 -715 0 -715 -430 0 -430 0 0 70 0 70 -70 0 -70 0 0 75 0 75
-215 0 -215 0 0 -75 0 -75 -75 0 -75 0 0 -70 0 -70 -710 0 -710 0 0 70 0 70
-500 0 -500 0 0 -210 0 -210 70 0 70 0 0 -75 0 -75 215 0 215 0 0 -70 0 -70
425 0 425 0 0 -70 0 -70 360 0 360 0 0 -75 0 -75 855 0 855 0 0 -140 0 -140
-140 0 -140 0 0 -70 0 -70 -75 0 -75 0 0 -145 0 -145 75 0 75 0 0 -70 0 -70
425 0 425 0 0 -75 0 -75 105 0 105 0 0 -1855 0 -1855 2540 0 2540 0 0 5000 0
5000 -2540 0 -2540 0 0 -1355z m71 -1392 c20 -53 -14 -113 -55 -97 -25 10 -19
46 12 70 22 19 25 25 14 36 -11 11 -16 10 -28 -6 -11 -15 -14 -16 -14 -5 0 40
56 41 71 2z m110 0 c22 -57 -17 -117 -61 -93 -19 10 -25 32 -21 74 4 51 64 65
82 19z m110 0 c22 -57 -17 -117 -61 -93 -19 10 -25 32 -21 74 4 51 64 65 82
19z m59 7 c-11 -11 -20 -27 -20 -35 0 -13 4 -14 20 -5 11 6 20 7 20 1 0 -5 -7
-11 -15 -15 -8 -3 -15 -12 -15 -21 0 -8 7 -15 15 -15 8 0 15 -4 15 -10 0 -14
-13 -13 -34 3 -35 26 -19 117 20 117 10 0 8 -6 -6 -20z m-298 -131 c22 -12 31
-59 19 -92 -8 -21 -17 -27 -41 -27 -19 0 -30 -5 -30 -14 0 -8 8 -12 23 -9 30
6 51 -20 51 -62 0 -42 -21 -68 -51 -62 -19 3 -23 0 -23 -21 0 -20 3 -23 12
-14 7 7 23 12 38 12 24 -1 23 -2 -7 -15 -39 -17 -43 -35 -8 -35 34 0 49 -30
28 -59 -11 -17 -21 -21 -39 -17 -14 4 -24 2 -24 -4 0 -5 14 -10 30 -10 17 0
30 -4 30 -10 0 -5 -12 -10 -26 -10 -34 0 -29 -32 6 -40 47 -11 33 -70 -16 -70
-13 0 -24 -4 -24 -10 0 -5 16 -10 35 -10 21 0 35 -5 35 -12 0 -22 -49 -118
-60 -118 -23 0 -8 -19 18 -22 21 -2 27 -9 28 -28 1 -14 5 -33 9 -42 11 -28 -2
-48 -35 -54 -16 -4 -30 -11 -30 -16 0 -5 9 -7 19 -3 18 5 51 -17 51 -35 0 -5
-11 -22 -25 -38 -31 -37 -31 -40 3 -45 22 -3 20 -4 -10 -6 -48 -1 -50 -21 -3
-21 21 0 35 -5 35 -12 0 -22 -49 -118 -60 -118 -5 0 -10 -4 -10 -10 0 -5 10
-10 23 -10 25 0 47 -17 47 -36 0 -7 -12 -26 -26 -43 l-26 -31 26 0 c14 0 26
-4 26 -10 0 -5 -16 -10 -35 -10 -19 0 -35 -5 -35 -11 0 -6 8 -8 19 -4 18 5 51
-17 51 -35 0 -5 -11 -22 -25 -38 -31 -37 -31 -40 3 -45 22 -3 20 -4 -10 -6
-45 -1 -52 -21 -8 -21 17 0 30 -4 30 -10 0 -5 -11 -10 -25 -10 -35 0 -31 -23
6 -37 42 -16 38 -54 -8 -68 -40 -11 -42 -23 -5 -27 21 -2 27 -9 28 -28 1 -14
5 -33 9 -42 11 -28 -2 -48 -35 -54 -16 -4 -30 -11 -30 -16 0 -5 5 -6 10 -3 6
3 19 3 31 0 15 -5 20 -14 18 -33 -1 -15 2 -35 6 -45 10 -23 -11 -47 -41 -47
-13 0 -24 -4 -24 -10 0 -5 16 -10 35 -10 21 0 35 -5 35 -12 0 -22 -49 -118
-60 -118 -5 0 -10 -10 -10 -22 0 -17 3 -19 12 -10 7 7 23 12 38 12 24 -1 23
-2 -7 -15 -39 -17 -43 -35 -8 -35 34 0 49 -30 28 -59 -11 -17 -21 -21 -39 -17
-18 5 -24 2 -24 -9 0 -9 5 -13 10 -10 6 3 19 3 31 0 15 -5 20 -14 18 -33 -1
-15 2 -35 6 -45 10 -23 -11 -47 -41 -47 -33 0 -30 -18 4 -22 24 -3 27 -7 26
-35 -1 -18 2 -33 7 -33 13 0 11 -34 -3 -48 -7 -7 -22 -12 -35 -12 -13 0 -23
-4 -23 -10 0 -5 10 -10 23 -10 25 0 47 -17 47 -36 0 -7 -12 -26 -26 -43 l-26
-31 26 0 c14 0 26 -4 26 -10 0 -5 -16 -10 -35 -10 -19 0 -35 -5 -35 -11 0 -6
8 -8 19 -4 18 5 51 -17 51 -35 0 -5 -11 -22 -25 -38 -31 -37 -31 -40 3 -45 22
-3 20 -4 -10 -6 -25 0 -38 -6 -38 -15 0 -9 7 -12 20 -9 22 6 50 -12 50 -32 0
-8 -12 -27 -26 -44 l-26 -31 26 0 c14 0 26 -4 26 -10 0 -5 -16 -10 -35 -10
-19 0 -35 -4 -35 -10 0 -5 10 -10 23 -10 25 0 47 -17 47 -36 0 -7 -12 -26 -26
-43 l-26 -31 26 0 c14 0 26 -4 26 -10 0 -5 -16 -10 -35 -10 -19 0 -35 -5 -35
-11 0 -6 8 -8 19 -4 18 5 51 -17 51 -35 0 -5 -11 -22 -25 -38 -31 -37 -31 -40
3 -45 22 -3 20 -4 -10 -6 -25 0 -38 -6 -38 -15 0 -9 7 -12 20 -9 22 6 50 -12
50 -32 0 -8 -12 -27 -26 -44 l-26 -31 26 0 c14 0 26 -4 26 -10 0 -5 -16 -10
-35 -10 -42 0 -44 12 -10 52 29 35 28 52 -3 56 -15 2 -22 -2 -22 -12 0 -14
-16 -16 -105 -16 l-105 0 0 285 0 285 -70 0 -70 0 0 355 0 355 -70 0 -70 0 0
930 0 930 70 0 70 0 0 71 0 70 193 -2 c105 0 200 -5 209 -10z m108 1 c23 -13
34 -59 21 -93 -8 -21 -17 -27 -40 -27 -36 0 -44 11 -44 63 0 27 6 45 19 54 21
16 21 16 44 3z m110 0 c23 -13 34 -59 21 -93 -8 -21 -17 -27 -40 -27 -36 0
-44 11 -44 63 0 27 6 45 19 54 21 16 21 16 44 3z m117 -107 c14 -11 10 -13
-28 -12 -36 0 -40 2 -21 9 18 8 22 17 22 51 0 36 -2 41 -20 36 -27 -7 -25 8 3
20 21 10 22 8 25 -41 2 -33 9 -55 19 -63z m107 104 c13 -10 17 -24 14 -62 -3
-47 -5 -50 -32 -53 -38 -5 -49 8 -49 59 0 29 6 46 19 56 22 16 26 16 48 0z
m-323 -153 c30 -36 8 -114 -31 -114 -26 0 -44 27 -43 66 2 58 43 85 74 48z
m110 0 c30 -36 8 -114 -31 -114 -26 0 -44 27 -44 65 0 38 18 65 44 65 10 0 24
-7 31 -16z m110 0 c30 -36 8 -114 -31 -114 -26 0 -44 27 -44 65 0 38 18 65 44
65 10 0 24 -7 31 -16z m110 0 c30 -36 8 -114 -31 -114 -26 0 -44 27 -44 65 0
38 18 65 44 65 10 0 24 -7 31 -16z m109 -4 c12 -22 8 -33 -23 -67 l-20 -23 26
0 c15 0 27 -4 27 -10 0 -5 -18 -10 -40 -10 -22 0 -40 3 -40 6 0 4 14 22 31 41
35 41 34 57 -6 61 -21 3 -25 6 -14 13 23 15 48 10 59 -11z m5 -127 c-36 -9
-47 -43 -15 -43 11 0 20 -4 20 -10 0 -5 -9 -10 -20 -10 -16 0 -20 -7 -20 -36
0 -21 -4 -33 -10 -29 -5 3 -10 18 -10 32 0 14 -8 32 -17 39 -16 12 -16 13 -2
14 9 0 21 11 27 25 9 18 19 25 39 24 21 -1 23 -3 8 -6z m-465 -58 c0 -42 3
-55 15 -55 8 0 15 -4 15 -10 0 -5 -15 -10 -34 -10 -19 0 -38 5 -41 10 -3 6 3
10 14 10 18 0 21 6 21 46 0 42 -1 45 -22 38 -20 -6 -21 -5 -9 10 27 32 41 19
41 -39z m113 40 c-39 -17 -43 -35 -8 -35 36 0 50 -32 26 -61 -16 -21 -22 -22
-45 -11 -52 24 -26 122 33 122 25 -1 25 -1 -6 -15z m127 -24 c0 -22 6 -42 13
-45 10 -5 10 -7 0 -12 -7 -3 -13 -12 -13 -20 0 -8 -4 -14 -10 -14 -5 0 -10 7
-10 15 0 10 -10 15 -30 15 -37 0 -37 9 -4 60 35 52 54 52 54 1z m93 24 c-39
-17 -43 -35 -8 -35 36 0 50 -32 26 -61 -16 -21 -22 -22 -45 -11 -52 24 -26
122 33 122 25 -1 25 -1 -6 -15z m137 -184 l0 -69 -37 1 c-36 2 -38 4 -41 40
-3 35 0 39 27 50 16 6 32 19 34 29 10 37 17 16 17 -51z m-440 44 c0 -23 -49
-115 -60 -115 -6 0 1 22 15 50 14 27 25 52 25 55 0 3 -13 5 -30 5 -16 0 -30 5
-30 10 0 6 18 10 40 10 29 0 40 -4 40 -15z m88 6 c8 -4 13 -19 11 -32 -1 -13
1 -32 6 -42 11 -25 -12 -47 -49 -46 l-31 1 30 7 c37 8 45 36 13 47 l-23 7 24
8 c30 12 22 33 -14 37 -21 3 -25 6 -14 13 18 11 30 11 47 0z m122 -1 c0 -5
-12 -10 -26 -10 -34 0 -29 -32 6 -40 51 -12 31 -71 -24 -69 l-31 1 30 7 c41 8
42 45 3 49 -23 3 -28 8 -28 31 0 15 3 31 7 34 10 11 63 8 63 -3z m110 -41 c0
-24 5 -39 13 -40 10 0 10 -2 0 -6 -7 -2 -13 -11 -13 -19 0 -8 -4 -14 -10 -14
-5 0 -10 7 -10 15 0 10 -10 15 -30 15 -37 0 -37 7 0 59 36 48 50 46 50 -10z
m-100 -158 l0 -69 -37 1 c-35 2 -38 4 -41 35 -4 38 12 62 39 62 12 0 19 7 19
20 0 11 5 20 10 20 6 0 10 -30 10 -69z m-223 43 c3 -9 2 -24 -4 -33 -7 -11 -7
-21 0 -32 16 -26 1 -49 -33 -49 -34 0 -49 23 -33 49 7 11 7 21 0 33 -8 12 -7
21 2 32 17 21 60 21 68 0z m97 -21 c-1 -18 2 -33 7 -33 13 0 11 -34 -3 -48 -7
-7 -26 -12 -42 -11 l-31 1 33 9 c36 11 43 38 12 46 l-21 6 21 14 c23 16 18 33
-11 33 -10 0 -19 5 -19 11 0 6 12 9 28 7 24 -3 27 -7 26 -35z m226 17 c12 -22
8 -33 -23 -67 l-20 -23 26 0 c15 0 27 -4 27 -10 0 -5 -18 -10 -40 -10 -22 0
-40 3 -40 6 0 4 14 22 31 41 35 41 34 57 -6 61 -21 3 -25 6 -14 13 23 15 48
10 59 -11z m110 0 c12 -22 8 -33 -23 -67 l-20 -23 26 0 c15 0 27 -4 27 -10 0
-5 -18 -10 -40 -10 -22 0 -40 3 -40 6 0 4 14 22 31 41 35 41 34 57 -6 61 -21
3 -25 6 -14 13 23 15 48 10 59 -11z m-320 -140 c0 -16 -54 -120 -62 -120 -5 0
3 22 17 50 14 27 25 54 25 59 0 5 -15 12 -32 14 -29 3 -27 4 10 5 23 1 42 -2
42 -8z m98 -2 c18 -18 15 -33 -14 -67 l-26 -31 26 0 c14 0 26 -4 26 -10 0 -5
-18 -10 -40 -10 -22 0 -40 3 -40 6 0 3 14 23 31 44 37 46 34 76 -7 66 -17 -5
-23 -3 -19 4 8 14 48 13 63 -2z m95 -3 c-39 -17 -43 -35 -8 -35 36 0 50 -32
26 -61 -16 -21 -22 -22 -45 -11 -52 24 -26 122 33 122 25 -1 25 -1 -6 -15z
m127 -24 c0 -22 6 -42 13 -45 10 -5 10 -7 0 -12 -7 -3 -13 -12 -13 -20 0 -8
-4 -14 -10 -14 -5 0 -10 7 -10 15 0 10 -10 15 -30 15 -37 0 -37 9 -4 60 35 52
54 52 54 1z m-449 0 c-50 -14 -55 -71 -6 -71 15 0 24 -4 20 -9 -3 -5 0 -13 7
-17 9 -6 5 -10 -12 -14 -37 -9 -39 -40 -3 -41 l28 -2 -27 -4 c-24 -4 -28 -9
-28 -39 0 -19 -4 -34 -10 -34 -5 0 -10 16 -10 35 0 26 -4 35 -17 36 -17 1 -17
2 -1 6 9 2 20 14 24 26 4 12 11 25 17 28 5 4 0 10 -12 14 -26 8 -37 46 -21 74
8 15 20 21 43 20 29 -1 29 -2 8 -8z m107 -110 c8 -4 13 -19 11 -32 -1 -13 1
-32 6 -42 11 -25 -12 -47 -49 -46 l-31 1 30 7 c37 8 45 36 13 47 l-23 7 24 8
c30 12 22 33 -14 37 -21 3 -25 6 -14 13 18 11 30 11 47 0z m116 -7 c21 -21 20
-27 -9 -62 -31 -37 -31 -40 3 -45 19 -3 14 -4 -15 -6 -24 0 -43 2 -43 6 0 4
14 22 31 39 39 40 34 70 -9 60 -26 -6 -26 -6 -8 9 25 19 31 19 50 -1z m104 7
c8 -4 13 -19 11 -32 -1 -13 1 -32 6 -42 11 -25 -12 -47 -49 -46 l-31 1 30 7
c37 8 45 36 13 47 l-23 7 24 8 c30 12 22 33 -14 37 -21 3 -25 6 -14 13 18 11
30 11 47 0z m116 -7 c21 -21 20 -27 -9 -62 -31 -37 -31 -40 3 -45 19 -3 14 -4
-15 -6 -24 0 -43 2 -43 6 0 4 14 22 31 39 39 40 34 70 -9 60 -26 -6 -26 -6 -8
9 25 19 31 19 50 -1z m16 -193 l0 -69 -37 1 c-35 2 -38 4 -41 35 -4 38 12 62
39 62 12 0 19 7 19 20 0 11 5 20 10 20 6 0 10 -30 10 -69z m-450 49 c0 -5 -11
-10 -25 -10 -35 0 -31 -23 5 -37 54 -20 30 -74 -32 -72 -18 1 -17 3 10 10 42
12 45 46 5 51 -28 3 -40 25 -29 54 6 16 66 20 66 4z m120 -2 c0 -23 -49 -118
-60 -118 -6 0 1 22 15 50 14 27 25 52 25 55 0 3 -13 5 -30 5 -16 0 -30 5 -30
10 0 6 18 10 40 10 25 0 40 -5 40 -12z m100 -33 c0 -29 4 -45 13 -46 10 0 10
-2 0 -6 -7 -2 -13 -11 -13 -19 0 -8 -4 -14 -10 -14 -5 0 -10 7 -10 15 0 10
-10 15 -30 15 -16 0 -30 3 -30 6 0 16 56 94 68 94 8 0 12 -16 12 -45z m104 8
c-1 -18 2 -33 7 -33 13 0 11 -34 -3 -48 -7 -7 -26 -12 -42 -11 l-31 1 33 9
c36 11 43 38 12 46 l-21 6 21 14 c23 16 18 33 -11 33 -10 0 -19 5 -19 11 0 6
12 9 28 7 24 -3 27 -7 26 -35z m-326 -125 c18 -18 15 -33 -14 -67 l-26 -31 25
0 c33 0 45 -37 14 -42 -12 -2 -23 -11 -25 -20 -3 -14 4 -18 25 -19 l28 -2 -27
-4 c-24 -4 -28 -9 -28 -39 0 -19 -4 -34 -10 -34 -5 0 -10 16 -10 35 0 26 -4
35 -17 36 -17 1 -17 2 -1 6 9 2 20 14 24 26 4 12 12 25 18 29 6 4 -1 8 -16 8
-16 0 -28 3 -28 6 0 3 14 23 31 44 37 46 34 76 -7 66 -17 -5 -23 -3 -19 4 8
14 48 13 63 -2z m110 0 c18 -18 15 -33 -14 -67 l-26 -31 26 0 c14 0 26 -4 26
-10 0 -5 -18 -10 -40 -10 -22 0 -40 3 -40 6 0 3 14 23 31 44 37 46 34 76 -7
66 -17 -5 -23 -3 -19 4 8 14 48 13 63 -2z m123 -15 c22 -57 -17 -117 -61 -93
-19 10 -25 32 -21 74 4 51 64 65 82 19z m109 17 c0 -16 -54 -120 -62 -120 -5
0 3 22 17 50 14 27 25 54 25 59 0 5 -15 12 -32 14 -29 3 -27 4 10 5 23 1 42
-2 42 -8z m106 -5 c4 -8 1 -22 -5 -29 -8 -10 -9 -16 -1 -21 15 -9 12 -41 -5
-55 -35 -29 -86 15 -53 48 8 8 8 15 -2 26 -19 24 -5 46 30 46 18 0 33 -6 36
-15z m1104 -98 c0 -15 -62 -16 -67 -2 -1 6 13 11 32 12 21 1 35 -3 35 -10z
m64 -2 c-6 -16 -24 -21 -24 -7 0 11 11 22 21 22 5 0 6 -7 3 -15z m142 -4 c-9
-8 -24 -11 -40 -7 -39 10 -31 21 14 21 34 0 38 -2 26 -14z m112 2 c-6 -7 -16
-13 -22 -13 -7 0 -20 6 -30 13 -15 11 -12 12 23 12 31 0 37 -2 29 -12z m-1764
-39 c21 -21 20 -27 -9 -62 -31 -37 -31 -40 3 -45 19 -3 14 -4 -15 -6 -24 0
-43 2 -43 6 0 4 14 22 31 39 39 40 34 70 -9 60 -26 -6 -26 -6 -8 9 25 19 31
19 50 -1z m110 0 c21 -21 20 -27 -9 -62 -31 -37 -31 -40 3 -45 19 -3 14 -4
-15 -6 -24 0 -43 2 -43 6 0 4 14 22 31 39 39 40 34 70 -9 60 -26 -6 -26 -6 -8
9 25 19 31 19 50 -1z m110 0 c21 -21 20 -27 -9 -62 -31 -37 -31 -40 3 -45 19
-3 14 -4 -15 -6 -24 0 -43 2 -43 6 0 4 14 22 31 39 39 40 34 70 -9 60 -26 -6
-26 -6 -8 9 25 19 31 19 50 -1z m106 6 c23 -13 34 -59 21 -93 -8 -21 -17 -27
-40 -27 -36 0 -44 11 -44 63 0 27 6 45 19 54 21 16 21 16 44 3z m1098 1 c8 -4
13 -19 11 -32 -1 -13 1 -32 6 -42 11 -25 -12 -47 -49 -46 l-31 1 30 7 c37 8
44 34 13 49 -17 8 -18 11 -7 11 18 1 32 25 22 35 -4 3 -15 6 -25 6 -11 0 -16
5 -13 10 8 12 25 13 43 1z m110 0 c8 -4 13 -19 11 -32 -1 -13 1 -32 6 -42 11
-25 -12 -47 -49 -46 l-31 1 30 7 c37 8 44 34 13 49 -17 8 -18 11 -7 11 18 1
32 25 22 35 -4 3 -18 6 -32 6 -21 0 -23 2 -11 10 18 12 31 12 48 1z m242 -6
c0 -23 -49 -115 -60 -115 -6 0 1 22 15 50 14 27 25 52 25 55 0 3 -13 5 -30 5
-16 0 -30 5 -30 10 0 6 18 10 40 10 29 0 40 -4 40 -15z m-122 -27 c7 -7 12
-29 12 -50 0 -38 0 -38 -40 -38 -34 0 -40 3 -40 21 0 13 10 23 30 30 37 13 39
29 4 29 -14 0 -23 4 -19 10 8 14 38 13 53 -2z m-3558 -138 l0 -70 70 0 70 0 0
-285 0 -285 -70 0 -70 0 0 -70 0 -70 -215 0 -215 0 0 70 0 70 -75 0 -75 0 0
285 0 285 75 0 75 0 0 70 0 70 215 0 215 0 0 -70z m3195 60 c-3 -5 -11 -10
-16 -10 -6 0 -7 5 -4 10 3 6 11 10 16 10 6 0 7 -4 4 -10z m580 0 c-3 -5 -21
-9 -38 -9 l-32 1 30 8 c43 11 47 11 40 0z m75 0 c0 -5 -5 -10 -11 -10 -5 0 -7
5 -4 10 3 6 8 10 11 10 2 0 4 -4 4 -10z m1475 0 c-3 -5 -16 -10 -28 -9 -21 0
-21 1 -2 9 28 12 37 12 30 0z m70 0 c-3 -5 -11 -10 -16 -10 -6 0 -7 5 -4 10 3
6 11 10 16 10 6 0 7 -4 4 -10z m145 0 c0 -5 -4 -10 -10 -10 -5 0 -10 5 -10 10
0 6 5 10 10 10 6 0 10 -4 10 -10z m75 0 c-3 -5 -11 -10 -16 -10 -6 0 -7 5 -4
10 3 6 11 10 16 10 6 0 7 -4 4 -10z m145 0 c0 -5 -4 -10 -10 -10 -5 0 -10 5
-10 10 0 6 5 10 10 10 6 0 10 -4 10 -10z m75 0 c-3 -5 -11 -10 -16 -10 -6 0
-7 5 -4 10 3 6 11 10 16 10 6 0 7 -4 4 -10z m139 -2 c-7 -11 -51 -10 -58 1 -3
5 10 9 28 8 19 0 33 -5 30 -9z m111 2 c-3 -5 -21 -9 -38 -9 l-32 1 30 8 c43
11 47 11 40 0z m125 0 c0 -4 -18 -7 -40 -8 -22 -1 -40 2 -40 6 0 4 18 8 40 8
22 1 40 -2 40 -6z m65 0 c3 -5 -3 -10 -14 -10 -12 0 -21 5 -21 10 0 6 6 10 14
10 8 0 18 -4 21 -10z m-2695 -31 c0 -6 -6 -9 -14 -6 -14 6 -36 -10 -36 -25 0
-5 10 -13 23 -18 l22 -9 -22 0 c-19 -1 -23 -7 -23 -36 0 -19 -4 -35 -10 -35
-5 0 -10 16 -10 35 0 26 -4 35 -17 36 -14 1 -15 2 -3 5 9 3 21 18 27 34 9 23
18 30 37 30 14 0 26 -5 26 -11z m-1780 -44 c0 -29 4 -45 13 -46 10 0 10 -2 0
-6 -7 -2 -13 -11 -13 -19 0 -8 -4 -14 -10 -14 -5 0 -10 7 -10 15 0 10 -10 15
-30 15 -16 0 -30 3 -30 6 0 16 56 94 68 94 8 0 12 -16 12 -45z m120 33 c0 -23
-49 -118 -60 -118 -6 0 1 22 15 50 14 27 25 52 25 55 0 3 -13 5 -30 5 -16 0
-30 5 -30 10 0 6 18 10 40 10 25 0 40 -5 40 -12z m98 0 c7 -7 12 -29 12 -50 0
-29 -6 -41 -25 -54 -13 -8 -32 -14 -42 -11 -19 4 -16 6 30 21 26 8 20 24 -10
28 -20 2 -29 9 -31 26 -6 42 37 69 66 40z m122 0 c0 -23 -49 -118 -60 -118 -6
0 1 22 15 50 14 27 25 52 25 55 0 3 -13 5 -30 5 -16 0 -30 5 -30 10 0 6 18 10
40 10 25 0 40 -5 40 -12z m101 -4 c30 -36 8 -114 -31 -114 -26 0 -44 27 -44
65 0 38 18 65 44 65 10 0 24 -7 31 -16z m999 6 c0 -20 -49 -120 -60 -120 -6 0
1 22 15 50 14 27 25 52 25 55 0 3 -13 5 -30 5 -16 0 -30 5 -30 10 0 6 18 10
40 10 22 0 40 -4 40 -10z m94 -27 c-1 -18 2 -33 7 -33 13 0 11 -34 -3 -48 -15
-15 -68 -16 -68 -1 0 5 5 7 10 4 16 -10 50 5 50 22 0 8 -9 17 -20 20 l-21 6
21 14 c25 18 17 33 -16 33 -15 0 -23 4 -19 11 4 5 19 9 33 7 23 -3 27 -7 26
-35z m116 28 c0 -5 -10 -11 -22 -13 -32 -5 -33 -26 -1 -30 23 -2 29 -8 31 -35
3 -28 -1 -33 -23 -39 -35 -9 -55 11 -55 57 0 28 6 42 22 53 25 18 48 21 48 7z
m230 -1 c0 -20 -49 -120 -60 -120 -6 0 1 22 15 50 14 27 25 52 25 55 0 3 -13
5 -30 5 -16 0 -30 5 -30 10 0 6 18 10 40 10 22 0 40 -4 40 -10z m100 0 c0 -5
-11 -10 -25 -10 -35 0 -31 -23 5 -37 54 -20 30 -74 -32 -72 -18 1 -17 3 10 10
42 12 45 46 5 51 -28 3 -40 25 -29 54 6 16 66 20 66 4z m70 0 c0 -5 -7 -10
-15 -10 -8 0 -15 5 -15 10 0 6 7 10 15 10 8 0 15 -4 15 -10z m1590 1 c0 -18
-52 -121 -61 -121 -5 0 2 22 16 50 14 27 25 52 25 55 0 3 -13 5 -30 5 -16 0
-30 5 -30 10 0 6 18 10 40 10 22 0 40 -4 40 -9z m100 -36 c0 -29 4 -45 13 -46
10 0 10 -2 0 -6 -7 -2 -13 -11 -13 -19 0 -8 -4 -14 -10 -14 -5 0 -10 7 -10 15
0 10 -10 15 -30 15 -16 0 -30 3 -30 7 0 3 11 26 25 50 34 58 55 57 55 -2z
m108 28 c11 -22 6 -41 -21 -70 l-20 -23 26 0 c15 0 27 -4 27 -10 0 -5 -18 -10
-40 -10 -22 0 -40 3 -40 6 0 4 14 22 31 41 35 41 34 57 -6 61 -21 3 -25 6 -14
13 22 14 48 10 57 -8z m108 -18 c0 -16 4 -38 8 -48 5 -10 3 -23 -4 -32 -14
-17 -70 -20 -70 -4 0 5 5 7 10 4 16 -10 50 5 50 22 0 8 -9 17 -20 20 l-21 6
21 14 c25 18 17 33 -16 33 -15 0 -23 4 -19 11 4 5 19 9 33 7 22 -2 27 -8 28
-33z m112 18 c11 -22 6 -41 -21 -70 l-20 -23 26 0 c15 0 27 -4 27 -10 0 -5
-18 -10 -40 -10 -22 0 -40 3 -40 6 0 4 14 22 31 41 35 41 34 57 -6 61 -21 3
-25 6 -14 13 22 14 48 10 57 -8z m110 0 c11 -22 6 -41 -21 -70 l-20 -23 26 0
c15 0 27 -4 27 -10 0 -5 -18 -10 -40 -10 -22 0 -40 3 -40 6 0 4 14 22 31 41
35 41 34 57 -6 61 -21 3 -25 6 -14 13 22 14 48 10 57 -8z m110 0 c11 -22 6
-41 -21 -70 l-20 -23 26 0 c15 0 27 -4 27 -10 0 -5 -18 -10 -40 -10 -22 0 -40
3 -40 6 0 4 14 22 31 41 35 41 34 57 -6 61 -21 3 -25 6 -14 13 22 14 48 10 57
-8z m112 2 c6 -8 12 -30 12 -50 0 -40 -16 -65 -43 -65 -21 0 -49 36 -49 65 0
50 53 83 80 50z m80 5 c0 -5 -9 -10 -20 -10 -11 0 -20 5 -20 10 0 6 9 10 20
10 11 0 20 -4 20 -10z m-962 -32 c22 -22 14 -48 -13 -48 -14 0 -25 5 -25 10 0
6 7 10 15 10 20 0 19 17 -2 29 -15 9 -15 10 -2 11 8 0 20 -5 27 -12z m958 -73
c-3 -8 -10 -15 -15 -15 -7 0 -6 10 1 26 12 26 25 16 14 -11z m-8276 -55 l0
-70 640 0 640 0 0 -70 0 -70 -1070 0 -1070 0 0 140 0 140 430 0 430 0 0 -70z
m4308 58 c8 -8 15 -8 27 2 8 7 19 10 22 6 9 -9 -16 -26 -38 -26 -9 0 -22 7
-29 15 -15 18 1 20 18 3z m148 -3 c-11 -8 -31 -15 -45 -14 -23 0 -23 1 9 13
47 18 59 18 36 1z m105 5 c10 0 19 -4 19 -10 0 -5 -18 -10 -40 -10 -38 0 -49
8 -33 24 4 3 13 4 21 1 7 -3 22 -5 33 -5z m89 -5 c0 -8 -4 -15 -10 -15 -5 0
-10 7 -10 15 0 8 5 15 10 15 6 0 10 -7 10 -15z m136 0 c-11 -8 -31 -15 -45
-14 -23 0 -23 1 9 13 47 18 59 18 36 1z m105 5 c10 0 19 -4 19 -10 0 -5 -18
-10 -40 -10 -38 0 -49 8 -33 24 4 3 13 4 21 1 7 -3 22 -5 33 -5z m77 -2 c8 -8
15 -8 27 2 8 7 19 10 22 6 9 -9 -16 -26 -38 -26 -9 0 -22 7 -29 15 -15 18 1
20 18 3z m148 -3 c-11 -8 -31 -15 -45 -14 -23 0 -23 1 9 13 47 18 59 18 36 1z
m742 3 c-2 -6 -10 -14 -16 -16 -7 -2 -10 2 -6 12 7 18 28 22 22 4z m133 2 c10
0 19 -4 19 -10 0 -5 -18 -10 -40 -10 -38 0 -49 8 -33 24 4 3 13 4 21 1 7 -3
22 -5 33 -5z m77 -2 c8 -8 15 -8 27 2 8 7 19 10 22 6 9 -9 -16 -26 -38 -26 -9
0 -22 7 -29 15 -15 18 1 20 18 3z m152 -3 c-14 -17 -70 -21 -70 -5 0 5 6 7 14
4 8 -3 23 -1 33 5 26 15 37 13 23 -4z m68 3 c9 -9 15 -9 24 0 17 17 33 15 18
-3 -7 -8 -20 -15 -30 -15 -10 0 -23 7 -30 15 -15 18 1 20 18 3z m148 -3 c-11
-8 -31 -15 -45 -14 -23 0 -23 1 9 13 47 18 59 18 36 1z m114 0 c0 -8 -4 -15
-10 -15 -5 0 -10 7 -10 15 0 8 5 15 10 15 6 0 10 -7 10 -15z m106 0 c-11 -8
-31 -15 -45 -14 -23 0 -23 1 9 13 47 18 59 18 36 1z m82 3 c-2 -6 -10 -14 -16
-16 -7 -2 -10 2 -6 12 7 18 28 22 22 4z m100 0 c9 -9 15 -9 24 0 17 17 33 15
18 -3 -7 -8 -20 -15 -30 -15 -10 0 -23 7 -30 15 -15 18 1 20 18 3z m110 0 c9
-9 15 -9 24 0 17 17 33 15 18 -3 -7 -8 -20 -15 -30 -15 -10 0 -23 7 -30 15
-15 18 1 20 18 3z m148 -3 c-11 -8 -31 -15 -45 -14 -24 0 -23 2 9 14 46 18 59
18 36 0z m72 3 c9 -9 15 -9 24 0 17 17 33 15 18 -3 -7 -8 -20 -15 -30 -15 -10
0 -23 7 -30 15 -15 18 1 20 18 3z m140 -1 c12 1 22 -3 22 -8 0 -16 -57 -10
-71 8 -13 15 -12 16 6 8 11 -4 30 -8 43 -8z m-198 -93 c0 -52 -3 -65 -14 -61
-7 3 -18 1 -23 -4 -18 -18 -43 2 -43 35 0 36 15 56 42 56 11 0 18 7 18 20 0
11 5 20 10 20 6 0 10 -29 10 -66z m660 0 c0 -52 -3 -65 -14 -61 -7 3 -18 1
-23 -4 -20 -20 -43 2 -43 42 0 36 3 40 30 46 21 4 30 11 30 24 0 11 5 19 10
19 6 0 10 -29 10 -66z m-3959 29 c22 -57 -17 -117 -61 -93 -19 10 -25 32 -21
74 4 51 64 65 82 19z m94 -5 c1 -15 4 -30 8 -34 14 -14 7 -43 -12 -54 -25 -13
-61 -13 -61 0 0 6 14 10 30 10 23 0 30 4 30 20 0 13 -7 20 -20 20 -26 0 -26
16 0 23 28 7 15 35 -18 40 -19 3 -16 4 8 3 31 -1 35 -4 35 -28z m121 17 c4 -8
1 -22 -5 -29 -8 -10 -9 -16 -1 -21 15 -9 12 -41 -5 -55 -35 -29 -86 15 -53 48
8 8 8 15 -2 26 -19 24 -5 46 30 46 18 0 33 -6 36 -15z m82 8 c-33 -5 -41 -43
-9 -43 26 0 44 -25 36 -49 -7 -23 -47 -37 -67 -25 -9 6 -4 10 17 14 42 7 46
38 6 46 -26 6 -31 11 -31 35 0 27 3 29 38 28 30 -2 32 -3 10 -6z m132 -32 c0
-22 6 -42 13 -45 10 -5 10 -7 0 -12 -7 -3 -13 -12 -13 -20 0 -8 -4 -14 -10
-14 -5 0 -10 7 -10 15 0 10 -10 15 -30 15 -37 0 -37 9 -4 60 35 52 54 52 54 1z
m105 7 c1 -15 4 -30 8 -34 14 -14 7 -43 -12 -54 -25 -13 -61 -13 -61 0 0 6 14
10 30 10 23 0 30 4 30 20 0 13 -7 20 -20 20 -26 0 -26 16 0 23 28 7 15 35 -18
40 -19 3 -16 4 8 3 31 -1 35 -4 35 -28z m95 -23 c0 -42 3 -55 15 -55 8 0 15
-4 15 -10 0 -5 -15 -10 -34 -10 -19 0 -38 5 -41 10 -3 6 3 10 14 10 18 0 21 6
21 46 0 42 -1 45 -22 38 -20 -6 -21 -5 -9 10 27 32 41 19 41 -39z m125 23 c1
-15 4 -30 8 -34 14 -14 7 -43 -12 -54 -25 -13 -61 -13 -61 0 0 6 14 10 30 10
23 0 30 4 30 20 0 13 -7 20 -20 20 -26 0 -26 16 0 23 28 7 15 35 -18 40 -19 3
-16 4 8 3 31 -1 35 -4 35 -28z m113 20 c16 -16 15 -70 0 -90 -15 -18 -56 -30
-63 -18 -2 4 9 10 25 14 18 3 30 12 30 21 0 9 -5 13 -10 10 -22 -13 -50 6 -50
34 0 15 3 31 7 34 11 11 48 8 61 -5z m107 -20 c1 -15 4 -30 8 -34 14 -14 7
-43 -12 -54 -25 -13 -61 -13 -61 0 0 6 14 10 30 10 23 0 30 4 30 20 0 13 -7
20 -20 20 -26 0 -26 16 0 23 28 7 15 35 -18 40 -19 3 -16 4 8 3 31 -1 35 -4
35 -28z m220 0 c1 -15 4 -30 8 -34 14 -14 7 -43 -12 -54 -25 -13 -61 -13 -61
0 0 6 14 10 30 10 23 0 30 4 30 20 0 13 -7 20 -20 20 -26 0 -26 16 0 23 28 7
15 35 -18 40 -19 3 -16 4 8 3 31 -1 35 -4 35 -28z m93 25 c-35 -5 -39 -40 -7
-45 12 -2 27 -11 33 -21 9 -15 7 -22 -13 -38 -24 -20 -61 -26 -61 -10 0 5 12
11 27 13 41 5 43 36 4 44 -26 6 -31 11 -31 35 0 27 3 29 38 28 30 -2 32 -3 10
-6z m127 -25 c1 -15 4 -30 8 -34 24 -25 -8 -64 -52 -64 -31 0 -25 18 6 22 34
4 46 38 14 38 -27 0 -27 16 -1 23 28 7 15 35 -18 40 -19 3 -16 4 8 3 31 -1 35
-4 35 -28z m98 17 c-40 -17 -42 -33 -5 -37 21 -2 28 -9 30 -29 4 -36 -21 -55
-53 -41 -20 9 -25 19 -25 48 0 45 24 74 59 74 25 -1 25 -1 -6 -15z m122 -17
c1 -15 4 -30 8 -34 24 -25 -8 -64 -52 -64 -31 0 -25 18 6 22 34 4 46 38 14 38
-27 0 -27 16 -1 23 28 7 15 35 -18 40 -19 3 -16 4 8 3 31 -1 35 -4 35 -28z
m220 0 c1 -15 4 -30 8 -34 24 -25 -8 -64 -52 -64 -31 0 -25 18 6 22 34 4 46
38 14 38 -27 0 -27 16 -1 23 28 7 15 35 -18 40 -19 3 -16 4 8 3 31 -1 35 -4
35 -28z m95 -23 c0 -42 3 -55 15 -55 8 0 15 -4 15 -10 0 -5 -15 -10 -34 -10
-19 0 -38 5 -41 10 -3 6 1 10 9 10 12 0 16 11 16 45 0 38 -2 43 -17 38 -16 -6
-16 -5 -4 10 27 33 41 20 41 -38z m125 23 c1 -15 4 -30 8 -34 24 -25 -8 -64
-52 -64 -31 0 -25 18 6 22 34 4 46 38 14 38 -27 0 -27 16 -1 23 28 7 15 35
-18 40 -19 3 -16 4 8 3 31 -1 35 -4 35 -28z m93 16 c-16 -8 -28 -19 -28 -24 0
-5 12 -10 28 -12 21 -2 28 -9 30 -29 4 -36 -21 -55 -53 -41 -20 10 -25 19 -25
51 0 44 20 71 53 71 20 -1 20 -2 -5 -16z m110 9 c-35 -5 -39 -40 -7 -45 12 -2
27 -11 33 -21 9 -15 7 -22 -13 -38 -24 -20 -61 -26 -61 -10 0 5 12 11 27 13
41 5 43 36 4 44 -26 6 -31 11 -31 35 0 27 3 29 38 28 30 -2 32 -3 10 -6z m241
-12 c8 -15 5 -27 -14 -55 l-24 -36 24 0 c14 0 25 -4 25 -10 0 -5 -18 -10 -40
-10 -49 0 -51 13 -9 56 38 39 34 70 -7 60 -17 -5 -23 -3 -19 4 10 17 54 11 64
-9z m110 0 c8 -15 5 -27 -14 -55 l-24 -36 24 0 c14 0 25 -4 25 -10 0 -5 -18
-10 -40 -10 -49 0 -51 13 -9 56 38 39 34 70 -7 60 -17 -5 -23 -3 -19 4 10 17
54 11 64 -9z m110 0 c8 -15 5 -27 -14 -55 l-24 -36 24 0 c14 0 25 -4 25 -10 0
-5 -18 -10 -40 -10 -49 0 -51 13 -9 56 38 39 34 70 -7 60 -17 -5 -23 -3 -19 4
10 17 54 11 64 -9z m118 -11 c16 -35 5 -79 -23 -92 -29 -14 -50 1 -59 43 -15
65 54 106 82 49z m113 20 c0 -16 -54 -120 -62 -120 -12 0 -10 6 17 60 14 27
25 51 25 54 0 3 -15 7 -32 9 -29 3 -27 4 10 5 23 1 42 -2 42 -8z m107 -6 c3
-8 1 -20 -5 -26 -7 -7 -7 -16 1 -29 9 -15 9 -24 0 -39 -8 -12 -9 -21 -3 -25 6
-3 10 -35 10 -70 l0 -63 -37 1 c-36 2 -38 4 -41 40 -3 35 0 39 27 50 40 15 41
43 1 51 -24 4 -30 11 -30 30 0 13 6 27 13 30 10 5 10 7 0 12 -14 6 -17 36 -6
47 13 14 64 7 70 -9z m81 0 c-16 -8 -28 -19 -28 -24 0 -5 12 -10 28 -12 21 -2
28 -9 30 -30 3 -22 -2 -30 -22 -39 -35 -16 -56 3 -56 52 0 42 21 69 53 69 20
-1 20 -2 -5 -16z m252 6 c0 -16 -54 -120 -62 -120 -12 0 -10 6 17 60 14 27 25
51 25 54 0 3 -15 7 -32 9 -29 3 -27 4 10 5 23 1 42 -2 42 -8z m98 -2 c11 -14
15 -38 13 -76 -1 -29 -44 -51 -65 -33 -39 32 -26 121 18 121 13 0 28 -6 34
-12z m107 -20 c1 -15 4 -30 8 -34 22 -22 -11 -64 -49 -64 -33 0 -30 18 3 22
34 4 46 38 14 38 -27 0 -27 16 -1 23 28 7 15 35 -18 40 -19 3 -16 4 8 3 31 -1
35 -4 35 -28z m225 -7 c0 -22 5 -41 12 -43 8 -3 5 -12 -10 -28 -18 -19 -22
-21 -22 -7 0 12 -9 17 -30 17 -37 0 -37 9 -4 60 35 52 54 52 54 1z m198 23
c-16 -8 -28 -19 -28 -24 0 -5 12 -10 28 -12 21 -2 28 -9 30 -30 3 -22 -2 -30
-22 -39 -35 -16 -56 3 -56 52 0 42 21 69 53 69 20 -1 20 -2 -5 -16z m110 9
c-35 -5 -39 -40 -7 -45 12 -2 27 -11 33 -21 9 -15 7 -22 -13 -38 -24 -20 -61
-26 -61 -10 0 5 12 11 27 13 40 4 42 34 4 43 -26 5 -31 11 -31 36 0 27 2 29
38 28 30 -2 32 -3 10 -6z m142 -3 c0 -16 -54 -120 -62 -120 -12 0 -10 6 17 60
14 27 25 51 25 54 0 3 -15 7 -32 9 -29 3 -27 4 10 5 23 1 42 -2 42 -8z m100
-29 c0 -22 5 -41 12 -43 8 -3 5 -12 -10 -28 -18 -19 -22 -21 -22 -7 0 12 -9
17 -30 17 -37 0 -37 9 -5 60 33 53 55 53 55 1z m70 13 c-11 -12 -11 -17 -1
-23 10 -6 9 -10 -3 -14 -20 -8 -20 -21 0 -42 20 -20 11 -33 -11 -15 -20 17
-20 84 1 105 20 20 32 11 14 -11z m-3362 -54 c3 -44 2 -45 -28 -44 -50 2 -52
3 -48 27 2 16 11 23 31 25 33 4 31 27 -2 26 -11 0 -21 3 -21 8 0 5 15 8 33 6
30 -3 32 -5 35 -48z m660 0 l3 -45 -38 0 c-34 0 -38 3 -38 25 0 20 6 26 28 28
33 4 31 23 -4 34 -19 5 -17 6 11 5 34 -2 35 -3 38 -47z m660 0 l3 -45 -38 0
c-34 0 -38 3 -38 25 0 20 6 26 28 28 33 4 31 23 -4 34 -19 5 -17 6 11 5 34 -2
35 -3 38 -47z m1320 4 c3 -39 2 -42 -29 -48 -37 -7 -53 3 -47 30 2 12 13 20
31 22 33 4 31 23 -4 34 -19 5 -17 6 11 5 33 -2 35 -4 38 -43z m-4548 -84 l0
-70 -360 0 -360 0 0 70 0 70 360 0 360 0 0 -70z m4110 -45 l0 -63 -37 1 c-36
2 -38 4 -41 40 -3 35 0 39 27 50 19 7 31 18 31 30 0 10 5 15 10 12 6 -3 10
-35 10 -70z m-3212 56 c8 -4 13 -19 11 -32 -1 -13 1 -32 6 -42 11 -25 -12 -47
-49 -46 l-31 1 30 7 c37 8 45 36 13 47 l-23 7 24 8 c30 12 22 33 -14 37 -21 3
-25 6 -14 13 18 11 30 11 47 0z m122 -1 c0 -5 -12 -10 -26 -10 -34 0 -29 -32
6 -40 51 -12 31 -71 -24 -69 l-31 1 30 7 c41 8 42 45 3 49 -23 3 -28 8 -28 31
0 15 3 31 7 34 10 11 63 8 63 -3z m98 1 c8 -4 13 -19 11 -32 -1 -13 1 -32 6
-42 11 -25 -12 -47 -49 -46 l-31 1 30 7 c37 8 45 36 13 47 l-23 7 24 8 c30 12
22 33 -14 37 -21 3 -25 6 -14 13 18 11 30 11 47 0z m104 -13 c-30 -8 -47 -41
-19 -37 40 5 48 -1 45 -33 -3 -28 -7 -34 -32 -36 -33 -4 -46 10 -46 54 0 35
17 61 45 66 35 7 41 -5 7 -14z m116 13 c8 -4 13 -19 11 -32 -1 -13 1 -32 6
-42 11 -25 -12 -47 -49 -46 l-31 1 30 7 c37 8 45 36 13 47 l-23 7 24 8 c30 12
22 33 -14 37 -21 3 -25 6 -14 13 18 11 30 11 47 0z m220 0 c8 -4 13 -19 11
-32 -1 -13 1 -32 6 -42 11 -25 -12 -47 -49 -46 l-31 1 30 7 c37 8 45 36 13 47
l-23 7 24 8 c30 12 22 33 -14 37 -21 3 -25 6 -14 13 18 11 30 11 47 0z m119
-108 c14 -11 10 -13 -28 -12 -24 1 -36 3 -26 6 13 3 17 15 17 50 0 36 -3 44
-15 39 -24 -9 -17 10 8 21 21 10 22 8 25 -41 2 -33 9 -55 19 -63z m101 108 c8
-4 13 -19 11 -32 -1 -13 1 -32 6 -42 11 -25 -12 -47 -49 -46 l-31 1 30 7 c37
8 45 36 13 47 l-23 7 24 8 c30 12 22 33 -14 37 -21 3 -25 6 -14 13 18 11 30
11 47 0z m104 -13 c-19 -5 -32 -15 -32 -24 0 -10 6 -14 14 -11 23 9 48 -16 44
-44 -2 -18 -10 -25 -32 -27 -33 -4 -46 10 -46 54 0 35 17 61 45 66 35 7 41 -5
7 -14z m128 12 c0 -5 -12 -10 -26 -10 -34 0 -29 -32 6 -40 51 -12 31 -71 -24
-69 l-31 1 30 7 c41 8 42 45 3 49 -23 3 -28 8 -28 31 0 15 3 31 7 34 10 11 63
8 63 -3z m214 -6 c21 -21 20 -27 -9 -62 -31 -37 -31 -40 3 -45 19 -3 14 -4
-15 -6 -24 0 -43 2 -43 6 0 4 14 22 31 39 39 40 34 70 -9 60 -26 -6 -26 -6 -8
9 25 19 31 19 50 -1z m110 0 c21 -21 20 -27 -9 -62 -31 -37 -31 -40 3 -45 19
-3 14 -4 -15 -6 -24 0 -43 2 -43 6 0 4 14 22 31 39 39 40 34 70 -9 60 -26 -6
-26 -6 -8 9 25 19 31 19 50 -1z m104 7 c8 -4 13 -19 11 -32 -1 -13 1 -32 6
-42 11 -25 -12 -47 -49 -46 l-31 1 30 7 c37 8 44 34 13 49 -17 8 -18 11 -7 11
18 1 32 25 22 35 -4 3 -18 6 -32 6 -21 0 -23 2 -11 10 18 12 31 12 48 1z m226
-7 c21 -21 20 -27 -9 -62 -31 -37 -31 -40 3 -45 19 -3 14 -4 -15 -6 -24 0 -43
2 -43 6 0 4 14 22 31 39 39 40 34 70 -9 60 -26 -6 -26 -6 -8 9 25 19 31 19 50
-1z m110 3 c22 -16 26 -78 7 -101 -22 -26 -60 -20 -72 11 -12 33 -3 80 19 93
22 12 25 12 46 -3z m104 4 c8 -4 13 -19 11 -32 -1 -13 1 -32 6 -42 11 -25 -12
-47 -49 -46 l-31 1 30 7 c37 8 44 34 13 49 -17 8 -18 11 -7 11 18 1 32 25 22
35 -4 3 -17 6 -30 6 -14 0 -21 4 -18 10 8 12 35 13 53 1z m242 -6 c0 -23 -49
-115 -60 -115 -6 0 1 22 15 50 14 27 25 52 25 55 0 3 -13 5 -30 5 -16 0 -30 5
-30 10 0 6 18 10 40 10 29 0 40 -4 40 -15z m101 -1 c9 -11 10 -20 2 -32 -7
-12 -7 -22 0 -33 16 -26 1 -49 -33 -49 -34 0 -49 23 -33 49 7 11 7 22 -1 34
-9 15 -7 21 8 33 25 18 40 18 57 -2z m109 7 c0 -5 -11 -12 -25 -15 -14 -4 -25
-14 -25 -22 0 -10 6 -14 14 -11 23 9 48 -16 44 -44 -2 -20 -8 -24 -38 -24 -33
0 -35 2 -38 37 -4 46 11 75 40 81 13 2 24 5 26 6 1 0 2 -3 2 -8z m120 -55 l0
-64 -37 1 c-36 2 -38 4 -41 40 -3 35 0 39 27 50 17 6 31 17 31 24 0 7 5 13 10
13 6 0 10 -28 10 -64z m110 49 c0 -23 -49 -115 -60 -115 -6 0 1 22 15 50 14
27 25 52 25 55 0 3 -13 5 -30 5 -16 0 -30 5 -30 10 0 6 18 10 40 10 29 0 40
-4 40 -15z m94 2 c22 -16 26 -78 7 -101 -22 -26 -60 -20 -72 11 -12 33 -3 80
19 93 22 12 25 12 46 -3z m116 -38 c0 -24 5 -39 13 -40 10 0 10 -2 0 -6 -7 -2
-13 -11 -13 -19 0 -8 -4 -14 -10 -14 -5 0 -10 7 -10 15 0 10 -10 15 -30 15
-37 0 -37 7 0 59 36 48 50 46 50 -10z m220 0 c0 -24 5 -39 13 -40 10 0 10 -2
0 -6 -7 -2 -13 -11 -13 -19 0 -8 -4 -14 -10 -14 -5 0 -10 7 -10 15 0 10 -10
15 -30 15 -37 0 -37 7 0 59 36 48 50 46 50 -10z m208 42 c8 -4 13 -19 11 -32
-1 -13 1 -32 6 -42 11 -25 -12 -47 -49 -46 l-31 1 30 7 c37 8 44 34 13 49 -18
8 -19 11 -5 11 10 1 17 9 17 21 0 15 -7 20 -26 20 -14 0 -23 4 -19 10 8 12 35
13 53 1z m232 -42 c0 -24 5 -39 13 -40 10 0 10 -2 0 -6 -7 -2 -13 -11 -13 -19
0 -8 -4 -14 -10 -14 -5 0 -10 7 -10 15 0 10 -10 15 -30 15 -37 0 -37 7 0 59
36 48 50 46 50 -10z m111 35 c9 -11 10 -20 2 -32 -7 -12 -7 -22 0 -33 16 -26
1 -49 -33 -49 -34 0 -49 23 -33 49 7 11 7 22 -1 34 -9 15 -7 21 8 33 25 18 40
18 57 -2z m109 7 c0 -5 -11 -12 -25 -15 -14 -4 -25 -13 -25 -22 0 -8 4 -12 10
-9 20 12 51 -15 48 -43 -3 -24 -7 -27 -38 -27 -34 0 -35 1 -38 43 -4 48 8 69
41 75 12 2 23 5 25 6 1 0 2 -3 2 -8z m104 -7 c21 -20 20 -73 -1 -96 -9 -10
-28 -18 -42 -18 -25 1 -25 1 7 15 38 17 42 35 7 35 -37 0 -51 34 -25 60 24 24
34 25 54 4z m126 1 c0 -23 -49 -115 -60 -115 -6 0 1 22 15 50 14 27 25 52 25
55 0 3 -13 5 -30 5 -16 0 -30 5 -30 10 0 6 18 10 40 10 29 0 40 -4 40 -15z
m88 6 c8 -4 13 -19 11 -32 -1 -13 1 -32 6 -42 11 -25 -12 -47 -49 -46 l-31 1
30 7 c37 8 44 34 13 49 -18 8 -19 11 -5 11 10 1 17 9 17 21 0 15 -7 20 -26 20
-14 0 -23 4 -19 10 8 12 35 13 53 1z m132 -3 c0 -23 -49 -118 -60 -118 -6 0 1
22 15 50 14 27 25 52 25 55 0 3 -13 5 -30 5 -16 0 -30 5 -30 10 0 6 18 10 40
10 25 0 40 -5 40 -12z m100 -39 c0 -21 -4 -39 -10 -39 -5 0 -10 15 -10 33 l0
32 -20 -25 c-11 -14 -20 -31 -20 -37 0 -14 -20 -18 -20 -5 0 18 61 93 70 87 6
-3 10 -24 10 -46z m80 31 c0 -5 -4 -10 -9 -10 -5 0 -12 -7 -15 -16 -4 -12 -2
-15 9 -10 22 8 18 -7 -5 -22 -18 -11 -20 -10 -20 16 0 27 15 52 32 52 4 0 8
-4 8 -10z m-4482 -22 c7 -7 12 -29 12 -51 0 -38 0 -38 -37 -35 -50 4 -58 34
-14 49 38 13 40 29 5 29 -14 0 -23 4 -19 10 8 14 38 13 53 -2z m660 0 c7 -7
12 -29 12 -51 0 -38 0 -38 -37 -35 -50 4 -58 34 -14 49 38 13 40 29 5 29 -14
0 -23 4 -19 10 8 14 38 13 53 -2z m660 0 c7 -7 12 -29 12 -51 0 -38 0 -38 -37
-35 -50 4 -58 34 -14 49 38 13 40 29 5 29 -14 0 -23 4 -19 10 8 14 38 13 53
-2z m440 0 c7 -7 12 -20 12 -30 0 -13 -8 -18 -31 -18 -39 0 -34 -22 7 -32 25
-5 23 -6 -11 -5 -38 2 -40 4 -43 37 -5 48 36 78 66 48z m447 3 c3 -5 -7 -11
-22 -13 -24 -3 -28 -8 -28 -33 0 -25 5 -31 30 -36 l30 -7 -30 -1 c-36 -1 -55
14 -55 45 0 35 59 70 75 45z m1313 -3 c7 -7 12 -28 12 -48 0 -36 -1 -37 -40
-38 -34 -2 -40 1 -40 19 0 13 10 23 30 30 37 13 39 29 4 29 -14 0 -23 4 -19
10 8 14 38 13 53 -2z m-1518 -109 c0 -6 -6 -9 -14 -6 -14 6 -36 -10 -36 -25 0
-5 10 -13 23 -18 l22 -9 -22 0 c-19 -1 -23 -7 -23 -36 0 -19 -4 -35 -10 -35
-5 0 -10 16 -10 35 0 26 -4 35 -17 36 -14 1 -15 2 -3 5 9 3 21 18 27 34 9 23
18 30 37 30 14 0 26 -5 26 -11z m430 -58 l0 -69 -37 1 c-35 2 -38 4 -41 35 -4
38 12 62 39 62 12 0 19 7 19 20 0 11 5 20 10 20 6 0 10 -30 10 -69z m886 62
c-4 -5 -9 -6 -10 -3 -4 7 -36 -21 -36 -32 0 -5 10 -13 23 -18 l22 -9 -22 0
c-19 -1 -23 -7 -23 -36 0 -19 -4 -35 -10 -35 -5 0 -10 16 -10 35 0 26 -4 35
-17 36 -14 1 -15 2 -3 5 9 3 21 18 27 34 9 23 17 30 39 30 15 0 24 -3 20 -7z
m-3316 -48 c0 -29 4 -45 13 -46 10 0 10 -2 0 -6 -7 -2 -13 -11 -13 -19 0 -8
-4 -14 -10 -14 -5 0 -10 7 -10 15 0 10 -10 15 -30 15 -16 0 -30 3 -30 6 0 16
56 94 68 94 8 0 12 -16 12 -45z m110 0 c0 -29 4 -45 13 -46 10 0 10 -2 0 -6
-7 -2 -13 -11 -13 -19 0 -8 -4 -14 -10 -14 -5 0 -10 7 -10 15 0 10 -10 15 -30
15 -16 0 -30 3 -30 6 0 16 56 94 68 94 8 0 12 -16 12 -45z m110 35 c0 -5 -11
-10 -25 -10 -35 0 -31 -23 5 -37 54 -20 30 -74 -32 -72 -18 1 -17 3 10 10 42
12 45 46 5 51 -28 3 -40 25 -29 54 6 16 66 20 66 4z m120 -2 c0 -23 -49 -118
-60 -118 -6 0 1 22 15 50 14 27 25 52 25 55 0 3 -13 5 -30 5 -16 0 -30 5 -30
10 0 6 18 10 40 10 25 0 40 -5 40 -12z m100 3 c0 -5 -10 -11 -22 -13 -32 -5
-33 -26 -1 -30 23 -2 29 -8 31 -35 3 -28 -1 -33 -23 -39 -35 -9 -55 11 -55 57
0 28 6 42 22 53 25 18 48 21 48 7z m120 -3 c0 -23 -49 -118 -60 -118 -6 0 1
22 15 50 14 27 25 52 25 55 0 3 -13 5 -30 5 -16 0 -30 5 -30 10 0 6 18 10 40
10 25 0 40 -5 40 -12z m100 -33 c0 -29 4 -45 13 -46 10 0 10 -2 0 -6 -7 -2
-13 -11 -13 -19 0 -8 -4 -14 -10 -14 -5 0 -10 7 -10 15 0 10 -10 15 -30 15
-16 0 -30 3 -30 6 0 3 12 25 26 50 34 58 54 58 54 -1z m104 8 c-1 -18 2 -33 7
-33 13 0 11 -34 -3 -48 -15 -15 -68 -16 -68 -1 0 5 5 7 10 4 16 -10 50 5 50
22 0 8 -9 17 -20 20 l-21 6 21 14 c23 16 18 33 -11 33 -10 0 -19 5 -19 11 0 6
12 9 28 7 24 -3 27 -7 26 -35z m226 28 c0 -5 -10 -11 -22 -13 -32 -5 -33 -26
-1 -30 23 -2 29 -8 31 -35 3 -28 -1 -33 -23 -39 -35 -9 -55 11 -55 57 0 28 6
42 22 53 25 18 48 21 48 7z m90 -46 c0 -42 3 -55 15 -55 8 0 15 -4 15 -10 0
-5 -18 -10 -40 -10 -22 0 -40 5 -40 10 0 6 7 10 15 10 23 0 21 80 -2 80 -16 1
-16 2 1 15 31 24 36 18 36 -40z m130 46 c0 -5 -10 -11 -22 -13 -32 -5 -33 -26
-1 -30 23 -2 29 -8 31 -35 3 -28 -1 -33 -23 -39 -35 -9 -55 11 -55 57 0 28 6
42 22 53 25 18 48 21 48 7z m104 -28 c-1 -18 2 -33 7 -33 13 0 11 -34 -3 -48
-15 -15 -68 -16 -68 -1 0 5 5 7 10 4 16 -10 50 5 50 22 0 8 -9 17 -20 20 l-21
6 21 14 c25 18 17 33 -16 33 -15 0 -23 4 -19 11 4 5 19 9 33 7 23 -3 27 -7 26
-35z m126 27 c0 -20 -49 -120 -60 -120 -6 0 1 22 15 50 14 27 25 52 25 55 0 3
-13 5 -30 5 -16 0 -30 5 -30 10 0 6 18 10 40 10 22 0 40 -4 40 -10z m100 -35
c0 -29 4 -45 13 -46 10 0 10 -2 0 -6 -7 -2 -13 -11 -13 -19 0 -8 -4 -14 -10
-14 -5 0 -10 7 -10 15 0 10 -10 15 -30 15 -16 0 -30 3 -30 6 0 3 12 25 26 50
34 58 54 58 54 -1z m110 36 c0 -5 -10 -11 -22 -13 -32 -5 -33 -26 -1 -30 23
-2 29 -8 31 -35 3 -28 -1 -33 -23 -39 -35 -9 -55 11 -55 57 0 28 6 42 22 53
25 18 48 21 48 7z m108 -3 c7 -7 12 -29 12 -50 0 -29 -6 -41 -25 -54 -13 -8
-32 -14 -42 -11 -19 4 -16 6 30 21 26 8 21 26 -8 26 -26 0 -45 26 -37 50 10
30 48 40 70 18z m112 3 c0 -5 -10 -11 -22 -13 -32 -5 -33 -26 -1 -30 23 -2 29
-8 31 -35 3 -28 -1 -33 -23 -39 -35 -9 -55 11 -55 57 0 28 6 42 22 53 25 18
48 21 48 7z m220 0 c0 -5 -10 -11 -22 -13 -32 -5 -33 -26 -1 -30 23 -2 29 -8
31 -35 3 -28 -1 -33 -23 -39 -35 -9 -55 11 -55 57 0 28 6 42 22 53 25 18 48
21 48 7z m214 -28 c-1 -18 2 -33 7 -33 13 0 11 -34 -3 -48 -15 -15 -68 -16
-68 -1 0 5 5 7 10 4 16 -10 50 5 50 22 0 8 -9 17 -20 20 l-21 6 21 14 c25 18
17 33 -16 33 -15 0 -23 4 -19 11 4 5 19 9 33 7 23 -3 27 -7 26 -35z m226 17
c12 -22 8 -33 -23 -67 l-20 -23 26 0 c15 0 27 -4 27 -10 0 -5 -18 -10 -40 -10
-22 0 -40 3 -40 6 0 4 14 22 31 41 35 41 34 57 -6 61 -21 3 -25 6 -14 13 23
15 48 10 59 -11z m110 0 c12 -22 8 -33 -23 -67 l-20 -23 26 0 c15 0 27 -4 27
-10 0 -5 -18 -10 -40 -10 -22 0 -40 3 -40 6 0 4 14 22 31 41 35 41 34 57 -6
61 -21 3 -25 6 -14 13 23 15 48 10 59 -11z m120 11 c0 -19 -50 -121 -60 -121
-6 0 1 22 15 50 14 27 25 52 25 55 0 3 -13 5 -30 5 -16 0 -30 5 -30 10 0 6 18
10 40 10 22 0 40 -4 40 -9z m100 -6 c6 -8 12 -30 12 -50 0 -40 -16 -65 -42
-65 -26 0 -44 27 -44 65 0 56 44 86 74 50z m120 6 c0 -19 -50 -121 -60 -121
-6 0 1 22 15 50 14 27 25 52 25 55 0 3 -13 5 -30 5 -16 0 -30 5 -30 10 0 6 18
10 40 10 22 0 40 -4 40 -9z m98 -8 c11 -22 6 -41 -21 -70 l-20 -23 26 0 c15 0
27 -4 27 -10 0 -5 -18 -10 -40 -10 -22 0 -40 3 -40 6 0 4 14 22 31 41 35 41
34 57 -6 61 -21 3 -25 6 -14 13 22 14 48 10 57 -8z m112 8 c0 -5 -10 -11 -22
-13 -32 -5 -33 -26 -1 -30 23 -2 28 -8 28 -32 0 -36 -27 -56 -52 -40 -11 7
-19 26 -21 52 -2 32 1 43 20 56 25 18 48 21 48 7z m220 0 c0 -5 -10 -11 -22
-13 -32 -5 -33 -26 -1 -30 23 -2 28 -8 28 -32 0 -36 -27 -56 -52 -40 -11 7
-19 26 -21 52 -2 32 1 43 20 56 25 18 48 21 48 7z m110 -36 c0 -29 4 -45 13
-46 10 0 10 -2 0 -6 -7 -2 -13 -11 -13 -19 0 -8 -4 -14 -10 -14 -5 0 -10 7
-10 15 0 10 -10 15 -30 15 -16 0 -30 3 -30 7 0 3 11 26 25 50 34 58 55 57 55
-2z m120 36 c0 -18 -52 -121 -61 -121 -5 0 2 22 16 50 14 27 25 52 25 55 0 3
-13 5 -30 5 -16 0 -30 5 -30 10 0 6 18 10 40 10 22 0 40 -4 40 -9z m100 -1 c0
-5 -11 -10 -25 -10 -35 0 -31 -23 5 -37 17 -6 30 -18 30 -26 0 -24 -29 -47
-58 -47 -26 1 -26 1 6 15 38 16 38 37 1 45 -18 4 -25 13 -27 38 -3 31 -2 32
32 32 20 0 36 -4 36 -10z m110 1 c0 -5 -10 -11 -22 -13 -33 -5 -32 -25 2 -32
27 -5 31 -10 28 -32 -2 -15 -11 -32 -20 -38 -29 -18 -53 4 -56 52 -2 32 1 43
20 56 25 18 48 21 48 7z m105 -26 c0 -16 4 -36 8 -42 10 -16 5 -16 -26 0 -24
13 -25 14 -6 25 25 16 16 32 -17 32 -15 0 -23 4 -19 11 4 5 19 9 33 7 23 -2
27 -8 27 -33z m115 26 c0 -5 -10 -11 -22 -13 -33 -5 -32 -25 2 -31 19 -4 30
-13 30 -24 0 -13 -3 -14 -12 -5 -16 16 -55 15 -61 0 -3 -7 -6 1 -6 19 -1 22 6
37 21 47 25 18 48 21 48 7z m110 -1 c0 -5 -11 -10 -25 -10 -16 0 -25 -6 -25
-15 0 -8 6 -15 13 -15 18 0 53 -27 45 -35 -3 -3 -14 -2 -25 4 -10 5 -26 12
-35 15 -12 4 -18 16 -18 36 0 28 3 30 35 30 19 0 35 -4 35 -10z m110 1 c0 -5
-10 -11 -22 -13 -33 -5 -32 -25 2 -31 19 -4 30 -13 30 -24 0 -13 -3 -14 -12
-5 -16 16 -55 15 -61 0 -3 -7 -6 1 -6 19 -1 22 6 37 21 47 25 18 48 21 48 7z
m-3412 -33 c7 -7 12 -29 12 -49 0 -36 -1 -37 -37 -36 -31 2 -39 6 -41 25 -3
18 2 23 27 28 45 9 39 31 -6 25 -7 -1 -13 3 -13 9 0 14 43 13 58 -2z m1320 0
c7 -7 12 -20 12 -30 0 -13 -8 -18 -30 -18 -16 0 -30 -4 -30 -9 0 -13 27 -21
45 -15 8 4 15 1 15 -5 0 -15 -53 -14 -68 1 -27 27 -8 88 28 88 9 0 21 -5 28
-12z m2138 -45 c-10 -10 -19 5 -10 18 6 11 8 11 12 0 2 -7 1 -15 -2 -18z
m-431 -33 c3 -5 1 -10 -4 -10 -6 0 -11 5 -11 10 0 6 2 10 4 10 3 0 8 -4 11
-10z m-1705 -29 c-32 -9 -40 -41 -11 -41 12 0 21 -4 21 -10 0 -5 -9 -10 -20
-10 -16 0 -20 -7 -20 -36 0 -21 -4 -33 -10 -29 -5 3 -10 18 -10 32 0 14 -8 32
-17 39 -16 12 -16 13 -2 14 9 0 21 11 27 25 9 18 19 25 39 24 l28 -1 -25 -7z
m440 0 c-32 -9 -40 -41 -11 -41 12 0 21 -4 21 -10 0 -5 -9 -10 -20 -10 -16 0
-20 -7 -20 -36 0 -21 -4 -33 -10 -29 -5 3 -10 18 -10 32 0 14 -8 32 -17 39
-16 12 -16 13 -2 14 9 0 21 11 27 25 9 18 19 25 39 24 l28 -1 -25 -7z m-2657
-16 c-39 -17 -43 -35 -8 -35 36 0 50 -32 26 -61 -16 -21 -22 -22 -45 -11 -52
24 -26 122 33 122 25 -1 25 -1 -6 -15z m110 0 c-39 -17 -43 -35 -8 -35 36 0
50 -32 26 -61 -16 -21 -22 -22 -45 -11 -52 24 -26 122 33 122 25 -1 25 -1 -6
-15z m110 0 c-39 -17 -43 -35 -8 -35 36 0 50 -32 26 -61 -16 -21 -22 -22 -45
-11 -52 24 -26 122 33 122 25 -1 25 -1 -6 -15z m110 0 c-39 -17 -43 -35 -8
-35 36 0 50 -32 26 -61 -16 -21 -22 -22 -45 -11 -52 24 -26 122 33 122 25 -1
25 -1 -6 -15z m125 3 c16 -16 15 -70 0 -90 -15 -18 -56 -30 -63 -18 -2 4 9 10
25 14 18 3 30 12 30 21 0 9 -5 13 -10 10 -22 -13 -50 6 -50 34 0 15 3 31 7 34
11 11 48 8 61 -5z m95 -3 c-39 -17 -43 -35 -8 -35 36 0 50 -32 26 -61 -16 -21
-22 -22 -45 -11 -52 24 -26 122 33 122 25 -1 25 -1 -6 -15z m220 0 c-40 -17
-42 -33 -5 -37 21 -2 28 -9 30 -29 4 -36 -21 -55 -53 -41 -20 9 -25 19 -25 48
0 45 24 74 59 74 25 -1 25 -1 -6 -15z m125 3 c16 -16 15 -70 0 -90 -15 -18
-56 -30 -63 -18 -2 4 9 10 25 14 18 3 30 12 30 21 0 9 -5 13 -10 10 -22 -13
-50 6 -50 34 0 15 3 31 7 34 11 11 48 8 61 -5z m122 2 c0 -16 -54 -120 -62
-120 -4 0 3 25 17 56 14 31 25 58 25 60 0 1 -15 5 -32 7 -29 3 -27 4 10 5 23
1 42 -2 42 -8z m100 -29 c0 -22 5 -41 12 -43 8 -3 5 -12 -10 -28 -18 -19 -22
-21 -22 -7 0 12 -9 17 -30 17 -37 0 -37 9 -4 60 35 52 54 52 54 1z m120 29 c0
-16 -54 -120 -62 -120 -8 0 3 34 27 80 20 38 20 38 -17 43 -29 3 -27 4 10 5
23 1 42 -2 42 -8z m98 -2 c13 -13 16 -66 4 -85 -10 -16 -60 -34 -66 -24 -3 5
8 11 24 15 18 3 30 12 30 21 0 9 -5 13 -10 10 -22 -13 -50 6 -50 34 0 15 3 31
7 34 11 11 48 8 61 -5z m111 -2 c13 -16 4 -44 -27 -78 -14 -17 -13 -18 11 -18
15 0 27 -4 27 -10 0 -5 -18 -10 -40 -10 -49 0 -51 13 -9 56 38 39 34 70 -7 60
-17 -5 -23 -3 -19 4 9 15 51 12 64 -4z m123 -21 c15 -59 -19 -108 -61 -86 -50
27 -27 126 27 119 19 -2 28 -11 34 -33z m76 28 c-35 -5 -39 -40 -7 -45 12 -2
27 -11 33 -21 9 -15 7 -22 -13 -38 -24 -20 -61 -26 -61 -10 0 5 12 11 27 13
41 5 43 36 4 44 -26 6 -31 11 -31 35 0 27 3 29 38 28 30 -2 32 -3 10 -6z m143
-24 c16 -61 -18 -112 -60 -90 -50 27 -27 126 27 119 18 -2 28 -11 33 -29z m82
16 c-40 -17 -42 -33 -5 -37 21 -2 28 -9 30 -29 4 -36 -21 -55 -53 -41 -20 9
-25 19 -25 48 0 45 24 74 59 74 25 -1 25 -1 -6 -15z m134 -1 c3 -8 1 -20 -5
-26 -7 -7 -7 -16 1 -29 9 -15 9 -23 0 -38 -10 -16 -9 -20 5 -26 14 -7 13 -9
-8 -14 -33 -9 -40 -41 -8 -42 l23 -2 -22 -4 c-19 -4 -23 -11 -23 -39 0 -19 -4
-34 -10 -34 -5 0 -10 16 -10 35 0 26 -4 35 -17 36 -17 1 -17 2 0 6 9 2 17 11
17 18 0 7 7 20 15 28 13 13 11 16 -10 21 -18 5 -25 13 -25 30 0 14 6 27 13 30
10 5 10 7 0 12 -14 6 -17 36 -6 47 13 14 64 7 70 -9z m81 0 c-16 -8 -28 -19
-28 -24 0 -5 12 -10 28 -12 21 -2 28 -9 30 -29 4 -36 -21 -55 -53 -41 -49 22
-24 123 29 122 19 -1 18 -3 -6 -16z m252 6 c0 -16 -54 -120 -62 -120 -12 0
-10 6 17 60 14 27 25 51 25 54 0 3 -15 7 -32 9 -29 3 -27 4 10 5 23 1 42 -2
42 -8z m100 -29 c0 -22 5 -41 12 -43 8 -3 5 -12 -10 -28 -18 -19 -22 -21 -22
-7 0 12 -9 17 -30 17 -37 0 -37 9 -4 60 35 52 54 52 54 1z m88 23 c-16 -8 -28
-19 -28 -24 0 -5 12 -10 28 -12 22 -2 27 -8 27 -32 0 -36 -27 -56 -52 -40 -25
15 -29 86 -8 108 9 9 26 16 38 16 20 -1 20 -2 -5 -16z m241 -3 c8 -15 5 -27
-14 -55 l-24 -36 24 0 c14 0 25 -4 25 -10 0 -5 -18 -10 -40 -10 -49 0 -51 13
-9 56 38 39 34 70 -7 60 -17 -5 -23 -3 -19 4 10 17 54 11 64 -9z m119 -9 c21
-60 -14 -116 -57 -92 -11 5 -22 24 -26 40 -15 67 61 113 83 52z m97 -4 c1 -15
4 -30 8 -34 24 -25 -8 -64 -52 -64 -31 0 -25 18 6 22 34 4 46 38 14 38 -27 0
-27 16 -1 23 28 7 15 35 -18 40 -19 3 -16 4 8 3 31 -1 35 -4 35 -28z m95 -23
c0 -42 3 -55 15 -55 8 0 15 -4 15 -10 0 -5 -18 -10 -40 -10 -22 0 -40 5 -40
10 0 6 7 10 15 10 11 0 15 12 15 45 0 35 -3 43 -15 39 -8 -4 -15 -2 -15 4 0 6
6 13 13 15 32 13 37 7 37 -48z m129 36 c8 -15 5 -27 -14 -55 l-24 -36 24 0
c14 0 25 -4 25 -10 0 -5 -18 -10 -40 -10 -49 0 -51 13 -9 56 38 39 34 70 -7
60 -17 -5 -23 -3 -19 4 10 17 54 11 64 -9z m217 -11 c0 -14 4 -32 9 -39 6 -11
4 -13 -9 -8 -10 4 -24 7 -32 7 -21 0 -17 17 6 23 28 7 15 35 -18 40 -19 3 -16
4 8 3 30 -1 35 -4 36 -26z m124 20 c0 -19 -30 -70 -41 -70 -5 0 -3 13 6 30 20
38 20 38 -17 43 -29 3 -27 4 10 5 24 1 42 -3 42 -8z m98 -7 c12 -21 -5 -63
-26 -63 -12 0 -12 3 3 20 25 27 13 54 -21 46 -17 -5 -23 -3 -19 4 10 16 53 12
63 -7z m218 -13 c0 -14 4 -32 9 -39 6 -11 4 -13 -9 -8 -10 4 -24 7 -32 7 -21
0 -17 17 6 23 28 7 15 35 -18 40 -19 3 -16 4 8 3 30 -1 35 -4 36 -26z m64 10
c0 -5 -4 -10 -10 -10 -5 0 -10 5 -10 10 0 6 5 10 10 10 6 0 10 -4 10 -10z
m-3242 -37 c3 -20 -1 -23 -27 -23 -43 0 -42 -28 2 -32 26 -3 29 -6 14 -12 -30
-14 -67 9 -67 42 0 36 18 54 50 50 17 -2 26 -10 28 -25z m2640 0 c3 -21 -1
-23 -37 -23 -41 0 -46 5 -35 35 10 26 68 16 72 -12z m440 0 c3 -21 -1 -23 -37
-23 -41 0 -46 5 -35 35 10 26 68 16 72 -12z m-873 -82 c3 -5 -5 -11 -17 -13
-32 -4 -37 -38 -6 -39 20 -1 21 -2 3 -6 -11 -3 -23 -10 -27 -17 -6 -8 -10 -8
-15 0 -5 6 -15 14 -23 17 -12 4 -11 6 3 6 9 1 17 7 17 15 0 31 50 60 65 37z
m-2884 -11 c14 -8 19 -21 19 -50 0 -45 -21 -70 -58 -70 -27 1 -27 1 6 15 39
17 41 33 5 37 -35 4 -45 45 -17 65 21 16 20 16 45 3z m107 1 c8 -4 13 -19 11
-32 -1 -13 1 -32 6 -42 11 -25 -12 -47 -49 -46 l-31 1 30 7 c37 8 45 36 13 47
l-23 7 24 8 c30 12 22 33 -14 37 -21 3 -25 6 -14 13 18 11 30 11 47 0z m220 0
c8 -4 13 -19 11 -32 -1 -13 1 -32 6 -42 11 -25 -12 -47 -49 -46 l-31 1 30 7
c37 8 45 36 13 47 l-23 7 24 8 c30 12 22 33 -14 37 -21 3 -25 6 -14 13 18 11
30 11 47 0z m122 -1 c0 -5 -12 -10 -26 -10 -34 0 -29 -32 6 -40 51 -12 31 -71
-24 -69 l-31 1 30 7 c41 8 42 45 3 49 -23 3 -28 8 -28 31 0 15 3 31 7 34 10
11 63 8 63 -3z m98 1 c8 -4 13 -19 11 -32 -1 -13 1 -32 6 -42 11 -25 -12 -47
-49 -46 l-31 1 30 7 c37 8 45 36 13 47 l-23 7 24 8 c30 12 22 33 -14 37 -21 3
-25 6 -14 13 18 11 30 11 47 0z m104 -13 c-30 -8 -47 -41 -19 -37 40 5 48 -1
45 -33 -3 -28 -7 -34 -32 -36 -33 -4 -46 10 -46 54 0 35 17 61 45 66 35 7 41
-5 7 -14z m116 13 c8 -4 13 -19 11 -32 -1 -13 1 -32 6 -42 11 -25 -12 -47 -49
-46 l-31 1 30 7 c37 8 45 36 13 47 l-23 7 24 8 c30 12 22 33 -14 37 -21 3 -25
6 -14 13 18 11 30 11 47 0z m220 0 c8 -4 13 -19 11 -32 -1 -13 1 -32 6 -42 11
-25 -12 -47 -49 -46 l-31 1 30 7 c37 8 45 36 13 47 l-23 7 24 8 c30 12 22 33
-14 37 -21 3 -25 6 -14 13 18 11 30 11 47 0z m119 -108 c14 -11 10 -13 -28
-12 -24 1 -36 3 -26 6 13 3 17 15 17 50 0 36 -3 44 -15 39 -24 -9 -17 10 8 21
21 10 22 8 25 -41 2 -33 9 -55 19 -63z m101 108 c8 -4 13 -19 11 -32 -1 -13 1
-32 6 -42 11 -25 -12 -47 -49 -46 l-31 1 30 7 c37 8 45 36 13 47 l-23 7 24 8
c30 12 22 33 -14 37 -21 3 -25 6 -14 13 18 11 30 11 47 0z m104 -13 c-19 -5
-32 -15 -32 -24 0 -10 6 -14 14 -11 23 9 48 -16 44 -44 -2 -18 -10 -25 -32
-27 -33 -4 -46 10 -46 54 0 35 17 61 45 66 35 7 41 -5 7 -14z m128 12 c0 -5
-11 -10 -25 -10 -37 0 -35 -38 2 -42 56 -6 36 -69 -21 -67 l-31 1 30 7 c41 8
42 45 3 49 -23 3 -28 8 -28 31 0 15 3 31 7 34 10 11 63 8 63 -3z m214 -6 c21
-21 20 -27 -9 -62 -31 -37 -31 -40 3 -45 19 -3 14 -4 -15 -6 -24 0 -43 2 -43
6 0 4 14 22 31 39 39 40 34 70 -9 60 -26 -6 -26 -6 -8 9 25 19 31 19 50 -1z
m110 0 c21 -21 20 -27 -9 -62 -31 -37 -31 -40 3 -45 19 -3 14 -4 -15 -6 -24 0
-43 2 -43 6 0 4 14 22 31 39 39 40 34 70 -9 60 -26 -6 -26 -6 -8 9 25 19 31
19 50 -1z m110 0 c21 -21 20 -27 -9 -62 -31 -37 -31 -40 3 -45 19 -3 14 -4
-15 -6 -24 0 -43 2 -43 6 0 4 14 22 31 39 39 40 34 70 -9 60 -26 -6 -26 -6 -8
9 25 19 31 19 50 -1z m214 7 c8 -4 13 -19 11 -32 -1 -13 1 -32 6 -42 11 -25
-12 -47 -49 -46 l-31 1 30 7 c37 8 44 34 13 49 -17 8 -18 11 -7 11 18 1 32 25
22 35 -4 3 -18 6 -32 6 -21 0 -23 2 -11 10 18 12 31 12 48 1z m226 -7 c21 -21
20 -27 -9 -62 -31 -37 -31 -40 3 -45 19 -3 14 -4 -15 -6 -24 0 -43 2 -43 5 0
4 14 22 31 41 35 41 33 59 -7 56 -27 -2 -28 -1 -10 12 25 19 31 19 50 -1z
m108 4 c19 -15 33 -68 18 -68 -5 0 -10 5 -10 10 0 7 -7 7 -21 0 -28 -15 -37
-5 -10 12 27 16 27 38 1 38 -15 0 -22 -9 -26 -30 -4 -16 -11 -30 -16 -30 -15
0 0 53 19 68 9 6 20 12 23 12 3 0 13 -6 22 -12z m106 4 c15 -10 13 -72 -3 -72
-5 0 -17 5 -25 10 -13 8 -13 10 1 10 17 0 32 24 22 34 -4 3 -17 6 -30 6 -14 0
-21 4 -18 10 7 12 35 13 53 2z m226 -8 c9 -8 16 -18 16 -20 0 -13 -22 -44 -31
-44 -6 0 -6 7 1 20 15 28 3 43 -29 36 -25 -6 -25 -6 -7 9 25 19 31 19 50 -1z
m236 1 c0 -21 -22 -65 -33 -65 -5 0 -6 7 -3 15 3 8 9 22 12 30 5 11 -1 15 -25
15 -17 0 -31 5 -31 10 0 6 18 10 40 10 28 0 40 -4 40 -15z m94 -1 c9 -8 16
-18 16 -20 0 -13 -22 -44 -31 -44 -6 0 -6 7 1 20 15 28 3 43 -29 36 -25 -6
-25 -6 -7 9 25 19 31 19 50 -1z m116 7 c0 -5 -11 -12 -25 -15 -14 -4 -25 -14
-25 -22 0 -10 6 -14 14 -11 8 3 21 0 31 -6 13 -11 10 -12 -25 -12 -30 0 -40 4
-40 15 0 23 21 47 45 53 11 3 21 5 23 6 1 0 2 -3 2 -8z m-2972 -33 c7 -7 12
-29 12 -51 0 -38 0 -38 -37 -35 -50 4 -58 34 -14 49 38 13 40 29 5 29 -14 0
-23 4 -19 10 8 14 38 13 53 -2z m660 0 c7 -7 12 -29 12 -51 0 -38 0 -38 -37
-35 -50 4 -58 34 -14 49 38 13 40 29 5 29 -14 0 -23 4 -19 10 8 14 38 13 53
-2z m660 0 c7 -7 12 -29 12 -50 0 -38 0 -38 -40 -38 -34 0 -40 3 -40 21 0 13
10 23 30 30 37 13 39 29 4 29 -14 0 -23 4 -19 10 8 14 38 13 53 -2z m653 2
c10 -6 19 -20 19 -30 0 -16 -7 -20 -36 -20 -31 0 -35 -2 -24 -14 6 -8 24 -17
38 -19 15 -3 10 -4 -13 -3 -38 1 -40 3 -43 36 -3 24 2 38 14 47 21 16 21 16
45 3z m454 0 c3 -6 -5 -10 -19 -10 -14 0 -29 -8 -35 -17 -5 -10 -13 -14 -18
-10 -9 10 32 47 53 47 7 0 16 -4 19 -10z m-429 -107 c-4 -5 -9 -6 -10 -3 -4 7
-36 -21 -36 -32 0 -5 10 -13 23 -18 22 -9 22 -9 0 -9 -12 -1 -24 -7 -26 -13
-4 -9 -8 -10 -14 -2 -4 6 -15 14 -23 17 -13 5 -13 6 0 6 9 1 21 15 27 31 9 23
17 30 39 30 15 0 24 -3 20 -7z m-2106 -48 c0 -29 4 -45 13 -46 10 0 10 -2 0
-6 -7 -2 -13 -11 -13 -19 0 -8 -4 -14 -10 -14 -5 0 -10 7 -10 15 0 10 -10 15
-30 15 -16 0 -30 3 -30 6 0 16 56 94 68 94 8 0 12 -16 12 -45z m110 0 c0 -29
4 -45 13 -46 10 0 10 -2 0 -6 -7 -2 -13 -11 -13 -19 0 -8 -4 -14 -10 -14 -5 0
-10 7 -10 15 0 10 -10 15 -30 15 -16 0 -30 3 -30 6 0 16 56 94 68 94 8 0 12
-16 12 -45z m110 36 c0 -5 -10 -11 -22 -13 -32 -5 -33 -26 -1 -30 23 -2 29 -8
31 -35 3 -28 -1 -33 -23 -39 -35 -9 -55 11 -55 57 0 28 6 42 22 53 25 18 48
21 48 7z m110 -1 c0 -5 -11 -10 -25 -10 -35 0 -31 -23 5 -37 54 -20 30 -74
-32 -72 -18 1 -17 3 10 10 42 12 45 46 5 51 -28 3 -40 25 -29 54 6 16 66 20
66 4z m120 -2 c0 -23 -49 -118 -60 -118 -6 0 1 22 15 50 14 27 25 52 25 55 0
3 -13 5 -30 5 -16 0 -30 5 -30 10 0 6 18 10 40 10 25 0 40 -5 40 -12z m94 -25
c-1 -18 3 -33 9 -33 6 0 8 -2 5 -5 -3 -4 -18 -3 -32 1 -27 6 -27 7 -6 21 23
16 18 33 -11 33 -10 0 -19 5 -19 11 0 6 12 9 28 7 24 -3 27 -7 26 -35z m116
28 c0 -5 -10 -11 -22 -13 -31 -4 -35 -28 -4 -28 13 0 28 -5 31 -11 10 -15 -3
-24 -18 -11 -8 7 -18 7 -27 2 -23 -15 -30 -12 -30 14 0 14 10 32 22 40 25 18
48 21 48 7z m104 -28 c-1 -18 3 -33 9 -33 6 0 8 -2 5 -5 -3 -4 -18 -3 -32 1
-27 6 -27 7 -6 21 25 18 18 33 -16 33 -15 0 -23 4 -19 11 4 5 19 9 33 7 23 -3
27 -7 26 -35z m126 30 c0 -18 -25 -73 -33 -73 -5 0 -6 7 -3 15 3 8 9 22 12 30
5 11 -1 15 -25 15 -17 0 -31 5 -31 10 0 6 18 10 40 10 22 0 40 -3 40 -7z m100
-13 c12 -22 -2 -60 -21 -60 -6 0 -6 7 1 20 14 27 5 40 -28 40 -21 0 -24 2 -12
10 24 16 48 12 60 -10z m110 11 c0 -5 -10 -11 -22 -13 -31 -4 -35 -28 -4 -28
13 0 28 -5 31 -11 10 -15 -3 -24 -18 -11 -8 7 -18 7 -27 2 -23 -15 -30 -12
-30 14 0 14 10 32 22 40 25 18 48 21 48 7z m108 -3 c7 -7 12 -25 12 -41 0 -27
-2 -28 -37 -25 -31 2 -39 7 -41 26 -6 42 37 69 66 40z m122 5 c0 -18 -25 -73
-33 -73 -5 0 -6 7 -3 15 3 8 9 22 12 30 5 11 -1 15 -25 15 -17 0 -31 5 -31 10
0 6 18 10 40 10 22 0 40 -3 40 -7z m98 -6 c16 -19 26 -67 14 -67 -6 0 -12 6
-15 13 -4 10 -7 10 -18 0 -7 -7 -24 -13 -37 -13 -21 0 -23 3 -17 27 9 36 23
53 45 53 10 0 22 -6 28 -13z m122 6 c0 -18 -25 -73 -33 -73 -5 0 -6 7 -3 15 3
8 9 22 12 30 5 11 -1 15 -25 15 -17 0 -31 5 -31 10 0 6 18 10 40 10 22 0 40
-3 40 -7z m100 -33 c0 -22 -4 -40 -10 -40 -5 0 -10 12 -10 28 l0 27 -25 -30
c-30 -37 -32 -28 -4 19 29 49 49 47 49 -4z m110 31 c0 -5 -10 -11 -22 -13 -32
-5 -34 -26 -2 -30 44 -5 39 -23 -6 -23 -35 0 -40 3 -40 22 0 12 10 29 22 37
25 18 48 21 48 7z m108 -3 c7 -7 12 -25 12 -40 0 -25 -3 -28 -35 -28 -36 0
-57 22 -47 50 10 30 48 40 70 18z m112 3 c0 -5 -10 -11 -22 -13 -31 -4 -35
-28 -4 -28 13 0 28 -5 31 -11 10 -15 -3 -24 -18 -11 -8 7 -18 7 -27 2 -23 -15
-30 -12 -30 14 0 14 10 32 22 40 25 18 48 21 48 7z m220 0 c0 -5 -10 -11 -22
-13 -32 -5 -34 -26 -2 -30 44 -5 39 -23 -6 -23 -35 0 -40 3 -40 22 0 12 10 29
22 37 25 18 48 21 48 7z m-2312 -33 c7 -7 12 -29 12 -49 0 -36 -1 -37 -37 -36
-31 2 -39 6 -41 25 -3 18 2 23 27 28 45 9 39 31 -6 25 -7 -1 -13 3 -13 9 0 14
43 13 58 -2z m622 -84 c0 -2 -7 -4 -15 -4 -8 0 -15 4 -15 10 0 5 7 7 15 4 8
-4 15 -8 15 -10z m-609 -51 c22 -57 -17 -117 -61 -93 -19 10 -25 32 -21 74 4
51 64 65 82 19z m97 15 c18 -18 15 -33 -14 -67 l-26 -31 26 0 c14 0 26 -4 26
-10 0 -5 -18 -10 -40 -10 -22 0 -40 3 -40 6 0 3 14 23 31 44 37 46 34 76 -7
66 -17 -5 -23 -3 -19 4 8 14 48 13 63 -2z m123 -15 c22 -57 -17 -117 -61 -93
-19 10 -25 32 -21 74 4 51 64 65 82 19z m97 15 c18 -18 15 -33 -14 -67 l-26
-31 26 0 c14 0 26 -4 26 -10 0 -5 -18 -10 -40 -10 -22 0 -40 3 -40 6 0 3 14
23 31 44 37 46 34 76 -7 66 -17 -5 -23 -3 -19 4 8 14 48 13 63 -2z m124 -23
c15 -60 -19 -108 -62 -85 -19 10 -25 32 -21 74 5 54 69 63 83 11z m96 23 c18
-18 15 -33 -14 -67 l-26 -31 26 0 c14 0 26 -4 26 -10 0 -5 -18 -10 -40 -10
-22 0 -40 4 -40 9 0 5 14 24 30 41 37 40 36 66 -3 63 -15 -1 -25 2 -22 8 9 13
49 11 63 -3z m64 -10 c-14 -14 -17 -52 -3 -44 4 3 8 -8 7 -24 -2 -54 -27 -32
-29 25 -1 32 20 72 31 60 3 -3 0 -11 -6 -17z m-622 -128 c23 -13 34 -59 21
-93 -8 -21 -17 -27 -40 -27 -36 0 -44 11 -44 63 0 27 6 45 19 54 21 16 21 16
44 3z m114 -6 c21 -21 20 -27 -9 -62 -31 -37 -31 -40 3 -45 19 -3 14 -4 -15
-6 -24 0 -43 2 -43 6 0 4 14 22 31 39 39 40 34 70 -9 60 -26 -6 -26 -6 -8 9
25 19 31 19 50 -1z m106 6 c23 -13 34 -59 21 -93 -8 -21 -17 -27 -40 -27 -36
0 -44 11 -44 63 0 27 6 45 19 54 21 16 21 16 44 3z m114 -6 c21 -21 20 -27 -9
-62 -31 -37 -31 -40 3 -45 19 -3 14 -4 -15 -6 -24 0 -43 2 -43 6 0 4 14 22 31
39 39 40 34 70 -9 60 -26 -6 -26 -6 -8 9 25 19 31 19 50 -1z m106 6 c23 -13
34 -59 21 -93 -8 -21 -17 -27 -40 -27 -36 0 -44 11 -44 63 0 27 6 45 19 54 21
16 21 16 44 3z m114 -6 c21 -21 20 -27 -9 -62 -31 -37 -31 -40 3 -45 19 -3 14
-4 -15 -6 -24 0 -43 2 -43 6 0 4 14 22 31 39 39 40 34 70 -9 60 -26 -6 -26 -6
-8 9 25 19 31 19 50 -1z m66 -13 c-16 -31 -13 -51 8 -44 15 6 15 5 3 -11 -10
-12 -11 -20 -3 -28 13 -13 42 6 42 28 0 8 4 14 9 14 6 0 6 -12 0 -30 -9 -24
-17 -30 -39 -30 -35 0 -43 11 -43 60 0 40 8 60 24 60 6 0 6 -7 -1 -19z m-1270
-111 l0 -70 -145 0 -145 0 0 -75 0 -75 -70 0 -70 0 0 -70 0 -70 -70 0 -70 0 0
145 0 145 140 0 140 0 0 70 0 70 145 0 145 0 0 -70z m1407 52 c-23 -25 -21
-30 11 -35 19 -3 14 -4 -15 -6 -49 -1 -52 3 -21 36 25 27 49 32 25 5z m92 1
c-9 -10 -9 -17 -1 -25 13 -13 42 6 42 28 0 8 4 14 9 14 6 0 6 -12 -1 -31 -9
-26 -15 -30 -41 -27 -23 2 -32 9 -38 29 -6 23 -4 27 17 27 20 0 22 -3 13 -15z
m-838 -79 c30 -36 8 -114 -31 -114 -26 0 -44 27 -43 66 2 58 43 85 74 48z
m107 4 c18 -18 15 -33 -14 -67 l-26 -31 26 0 c14 0 26 -4 26 -10 0 -5 -18 -10
-40 -10 -22 0 -40 3 -40 6 0 4 14 22 31 41 35 41 34 57 -6 61 -21 3 -25 6 -14
13 20 12 43 11 57 -3z m113 -4 c30 -36 8 -114 -31 -114 -26 0 -44 27 -44 65 0
38 18 65 44 65 10 0 24 -7 31 -16z m109 -4 c12 -22 8 -33 -23 -67 l-20 -23 26
0 c15 0 27 -4 27 -10 0 -5 -18 -10 -40 -10 -22 0 -40 3 -40 6 0 4 14 22 31 41
35 41 34 57 -6 61 -21 3 -25 6 -14 13 23 15 48 10 59 -11z m111 4 c30 -36 8
-114 -31 -114 -26 0 -44 27 -44 65 0 38 18 65 44 65 10 0 24 -7 31 -16z m109
-4 c12 -22 8 -33 -23 -67 l-20 -23 26 0 c15 0 27 -4 27 -10 0 -5 -18 -10 -40
-10 -22 0 -40 3 -40 6 0 4 14 22 31 41 35 41 34 57 -6 61 -21 3 -25 6 -14 13
23 15 48 10 59 -11z m111 4 c30 -36 8 -114 -31 -114 -26 0 -44 27 -44 65 0 38
18 65 44 65 10 0 24 -7 31 -16z m109 -4 c12 -22 8 -33 -23 -67 l-20 -23 26 0
c15 0 27 -4 27 -10 0 -5 -18 -10 -40 -10 -22 0 -40 3 -40 6 0 4 14 22 31 41
35 41 34 57 -6 61 -21 3 -25 6 -14 13 23 15 48 10 59 -11z m111 4 c30 -36 8
-114 -31 -114 -26 0 -44 27 -44 65 0 38 18 65 44 65 10 0 24 -7 31 -16z m89
-69 l-23 -25 26 0 c15 0 27 -4 27 -10 0 -5 -18 -10 -40 -10 -22 0 -40 3 -40 7
0 11 53 63 64 63 5 0 -1 -11 -14 -25z m78 -11 c4 -33 -11 -24 -23 15 -5 17 -4
22 6 19 8 -3 15 -18 17 -34z m-1037 -81 c22 -57 -17 -117 -61 -93 -19 10 -25
32 -21 74 4 51 64 65 82 19z m97 15 c18 -18 15 -33 -14 -67 l-26 -31 26 0 c14
0 26 -4 26 -10 0 -5 -18 -10 -40 -10 -22 0 -40 3 -40 6 0 3 14 23 31 44 37 46
34 76 -7 66 -17 -5 -23 -3 -19 4 8 14 48 13 63 -2z m123 -15 c22 -57 -17 -117
-61 -93 -19 10 -25 32 -21 74 4 51 64 65 82 19z m97 15 c18 -18 15 -33 -14
-67 l-26 -31 26 0 c14 0 26 -4 26 -10 0 -5 -18 -10 -40 -10 -22 0 -40 3 -40 6
0 3 14 23 31 44 37 46 34 76 -7 66 -17 -5 -23 -3 -19 4 8 14 48 13 63 -2z
m124 -23 c15 -60 -19 -108 -62 -85 -19 10 -25 32 -21 74 5 54 69 63 83 11z
m96 23 c18 -18 15 -33 -14 -67 l-26 -31 26 0 c14 0 26 -4 26 -10 0 -5 -18 -10
-40 -10 -48 0 -50 11 -10 52 37 37 36 64 -3 61 -15 -1 -25 2 -22 8 9 13 49 11
63 -3z m124 -23 c15 -60 -19 -108 -62 -85 -19 10 -25 32 -21 74 5 54 69 63 83
11z m101 13 c8 -12 5 -24 -17 -52 l-27 -36 25 0 c15 0 26 -4 26 -10 0 -5 -18
-10 -40 -10 -48 0 -51 14 -9 55 36 35 34 61 -4 58 -16 -1 -25 2 -21 8 9 15 56
6 67 -13z m119 -13 c15 -59 -19 -108 -61 -86 -50 27 -27 126 27 119 19 -2 28
-11 34 -33z m101 13 c8 -12 5 -24 -17 -52 l-27 -36 25 0 c15 0 26 -4 26 -10 0
-5 -18 -10 -40 -10 -49 0 -51 13 -9 56 38 39 34 70 -7 60 -17 -5 -23 -3 -19 4
10 16 56 8 68 -12z m54 -43 c2 -56 -9 -67 -21 -21 -5 20 7 76 16 76 2 0 4 -25
5 -55z m-1057 -85 c23 -13 34 -59 21 -93 -8 -21 -17 -27 -40 -27 -36 0 -44 11
-44 63 0 27 6 45 19 54 21 16 21 16 44 3z m114 -6 c21 -21 20 -27 -9 -62 -31
-37 -31 -40 3 -45 19 -3 14 -4 -15 -6 -24 0 -43 2 -43 6 0 4 14 22 31 39 39
40 34 70 -9 60 -26 -6 -26 -6 -8 9 25 19 31 19 50 -1z m106 6 c23 -13 34 -59
21 -93 -8 -21 -17 -27 -40 -27 -36 0 -44 11 -44 63 0 27 6 45 19 54 21 16 21
16 44 3z m114 -6 c21 -21 20 -27 -9 -62 -31 -37 -31 -40 3 -45 19 -3 14 -4
-15 -6 -24 0 -43 2 -43 6 0 4 14 22 31 39 39 40 34 70 -9 60 -26 -6 -26 -6 -8
9 25 19 31 19 50 -1z m106 6 c23 -13 34 -59 21 -93 -8 -21 -17 -27 -40 -27
-36 0 -44 11 -44 63 0 27 6 45 19 54 21 16 21 16 44 3z m114 -6 c21 -21 20
-27 -9 -62 -31 -37 -31 -40 3 -45 19 -3 14 -4 -15 -6 -24 0 -43 2 -43 6 0 4
14 22 31 39 39 40 34 70 -9 60 -26 -6 -26 -6 -8 9 25 19 31 19 50 -1z m106 6
c23 -13 34 -59 21 -93 -8 -21 -17 -27 -40 -27 -36 0 -44 11 -44 63 0 27 6 45
19 54 21 16 21 16 44 3z m114 -6 c21 -21 20 -27 -9 -62 -31 -37 -31 -40 3 -45
19 -3 14 -4 -15 -6 -24 0 -43 2 -43 6 0 4 14 22 31 39 39 40 34 70 -9 60 -26
-6 -26 -6 -8 9 25 19 31 19 50 -1z m101 10 c26 -10 37 -52 25 -90 -10 -28 -17
-34 -40 -34 -35 0 -43 11 -43 63 0 27 6 45 19 54 21 15 18 15 39 7z m119 -10
c18 -17 20 -30 7 -38 -5 -3 -11 4 -14 15 -5 18 -11 20 -34 15 -27 -6 -27 -6
-9 9 25 19 31 19 50 -1z m61 -23 c-3 -12 -11 -21 -16 -21 -6 0 -8 3 -6 8 2 4
7 16 11 26 9 25 20 13 11 -13z m-1044 -127 c30 -36 8 -114 -31 -114 -26 0 -44
27 -43 66 2 58 43 85 74 48z m113 -6 c5 -9 7 -21 2 -25 -4 -4 -12 0 -17 10 -6
9 -22 17 -37 17 -21 0 -24 2 -12 10 21 14 51 8 64 -12z m104 10 c17 -17 15
-38 -3 -38 -9 0 -12 6 -9 15 9 21 -25 19 -42 -2 -11 -15 -13 -16 -14 -2 0 19
20 39 40 39 9 0 21 -5 28 -12z m112 -9 c14 -25 3 -41 -11 -16 -6 9 -22 17 -37
17 -21 0 -24 2 -12 10 24 16 49 11 60 -11z m108 9 c17 -17 15 -38 -3 -38 -9 0
-12 6 -9 15 9 21 -25 19 -42 -2 -11 -15 -13 -16 -14 -2 0 19 20 39 40 39 9 0
21 -5 28 -12z m112 -9 c14 -25 3 -41 -11 -16 -6 9 -22 17 -37 17 -21 0 -24 2
-12 10 24 16 49 11 60 -11z m108 9 c17 -17 15 -38 -3 -38 -9 0 -12 6 -9 15 9
21 -25 19 -42 -2 -11 -15 -13 -16 -14 -2 0 19 20 39 40 39 9 0 21 -5 28 -12z
m112 -9 c14 -25 3 -41 -11 -16 -6 9 -22 17 -37 17 -21 0 -24 2 -12 10 24 16
49 11 60 -11z m108 9 c17 -17 15 -38 -3 -38 -9 0 -12 6 -9 15 9 21 -25 19 -42
-2 -11 -15 -13 -16 -14 -2 0 19 20 39 40 39 9 0 21 -5 28 -12z m-990 -150 c14
-14 16 -38 3 -38 -5 0 -11 10 -14 21 -4 16 -11 20 -26 16 -12 -3 -21 -1 -21 4
0 13 44 11 58 -3z m123 -15 c7 -19 5 -23 -11 -23 -12 0 -17 5 -14 14 10 26
-18 30 -37 5 -13 -17 -19 -20 -19 -8 0 42 66 52 81 12z"/>
<path d="M4953 7213 c-28 -19 -30 -43 -3 -43 13 0 22 9 26 25 8 33 4 36 -23
18z"/>
<path d="M5040 7249 c-17 -31 -7 -43 19 -22 14 11 21 25 17 31 -11 18 -24 14
-36 -9z"/>
<path d="M5063 7213 c-28 -19 -30 -43 -3 -43 13 0 22 9 26 25 8 33 4 36 -23
18z"/>
<path d="M5150 7249 c-17 -31 -7 -43 19 -22 14 11 21 25 17 31 -11 18 -24 14
-36 -9z"/>
<path d="M5173 7213 c-28 -19 -30 -43 -3 -43 13 0 22 9 26 25 8 33 4 36 -23
18z"/>
<path d="M4926 7104 c-3 -9 -6 -22 -6 -30 0 -12 4 -12 25 2 14 9 25 23 25 30
0 19 -36 18 -44 -2z"/>
<path d="M4950 7062 c-20 -17 -23 -23 -12 -33 10 -11 15 -10 28 3 9 8 14 23
12 33 -3 16 -5 16 -28 -3z"/>
<path d="M4925 6949 c-10 -29 1 -35 25 -14 25 23 25 35 1 35 -11 0 -23 -9 -26
-21z"/>
<path d="M4945 6910 c-13 -14 -15 -24 -8 -31 12 -12 43 14 43 37 0 20 -14 17
-35 -6z"/>
<path d="M4937 6774 c-4 -4 -7 -16 -7 -26 0 -14 6 -19 23 -16 14 2 22 10 22
23 0 20 -25 32 -38 19z"/>
<path d="M4920 6605 c0 -22 4 -26 23 -23 14 2 22 10 22 23 0 13 -8 21 -22 23
-19 3 -23 -1 -23 -23z"/>
<path d="M4920 6478 l1 -53 24 45 c30 57 30 60 0 60 -24 0 -25 -3 -25 -52z"/>
<path d="M4920 6340 c0 -47 2 -50 25 -50 18 0 25 5 25 20 0 13 -7 20 -20 20
-26 0 -26 16 0 23 25 7 16 37 -11 37 -16 0 -19 -8 -19 -50z"/>
<path d="M4927 6233 c-4 -3 -7 -22 -7 -42 l0 -36 26 27 c17 16 24 32 21 42 -6
16 -28 21 -40 9z"/>
<path d="M4920 6038 l1 -53 24 45 c30 57 30 60 0 60 -24 0 -25 -3 -25 -52z"/>
<path d="M4927 5944 c-4 -4 -7 -26 -7 -48 l1 -41 24 30 c14 17 24 37 22 45 -2
16 -29 25 -40 14z"/>
<path d="M4927 5793 c-4 -3 -7 -22 -7 -42 l0 -36 26 27 c17 16 24 32 21 42 -6
16 -28 21 -40 9z"/>
<path d="M4920 5575 c0 -26 7 -29 34 -19 27 10 20 44 -9 44 -20 0 -25 -5 -25
-25z"/>
<path d="M4920 5460 c0 -47 2 -50 25 -50 18 0 25 5 25 20 0 13 -7 20 -20 20
-26 0 -26 16 0 23 25 7 16 37 -11 37 -16 0 -19 -8 -19 -50z"/>
<path d="M4920 5310 c0 -48 2 -51 22 -48 31 4 35 34 6 44 l-23 7 24 8 c27 11
23 33 -7 37 -20 3 -22 -1 -22 -48z"/>
<path d="M4920 5158 l1 -53 24 45 c30 57 30 60 0 60 -24 0 -25 -3 -25 -52z"/>
<path d="M4930 4995 c0 -22 4 -26 23 -23 14 2 22 10 22 23 0 13 -8 21 -22 23
-19 3 -23 -1 -23 -23z"/>
<path d="M4920 4870 c0 -48 2 -51 22 -48 31 4 35 34 6 44 l-23 7 24 8 c27 11
23 33 -7 37 -20 3 -22 -1 -22 -48z"/>
<path d="M4920 4720 c0 -51 9 -60 39 -41 18 12 7 41 -16 41 -15 0 -14 3 5 16
25 17 21 34 -9 34 -16 0 -19 -7 -19 -50z"/>
<path d="M4927 4624 c-4 -4 -7 -26 -7 -48 l1 -41 24 30 c14 17 24 37 22 45 -2
16 -29 25 -40 14z"/>
<path d="M4927 4473 c-4 -3 -7 -22 -7 -42 l0 -36 26 27 c17 16 24 32 21 42 -6
16 -28 21 -40 9z"/>
<path d="M4920 4288 l1 -43 25 29 c28 32 27 50 -4 54 -20 3 -22 -1 -22 -40z"/>
<path d="M4927 4184 c-4 -4 -7 -26 -7 -48 l1 -41 24 30 c14 17 24 37 22 45 -2
16 -29 25 -40 14z"/>
<path d="M4927 4033 c-4 -3 -7 -22 -7 -42 l0 -36 26 27 c17 16 24 32 21 42 -6
16 -28 21 -40 9z"/>
<path d="M5036 7104 c-3 -9 -6 -22 -6 -30 0 -12 4 -12 25 2 14 9 25 23 25 30
0 19 -36 18 -44 -2z"/>
<path d="M5060 7062 c-20 -17 -23 -23 -12 -33 10 -11 15 -10 28 3 9 8 14 23
12 33 -3 16 -5 16 -28 -3z"/>
<path d="M5146 7104 c-3 -9 -6 -22 -6 -30 0 -12 4 -12 25 2 14 9 25 23 25 30
0 19 -36 18 -44 -2z"/>
<path d="M5170 7062 c-20 -17 -23 -23 -12 -33 10 -11 15 -10 28 3 9 8 14 23
12 33 -3 16 -5 16 -28 -3z"/>
<path d="M5366 7104 c-3 -9 -6 -22 -6 -30 0 -12 4 -12 25 2 14 9 25 23 25 30
0 19 -36 18 -44 -2z"/>
<path d="M5390 7062 c-20 -17 -23 -23 -12 -33 10 -11 15 -10 28 3 9 8 14 23
12 33 -3 16 -5 16 -28 -3z"/>
<path d="M5035 6949 c-10 -29 1 -35 25 -14 25 23 25 35 1 35 -11 0 -23 -9 -26
-21z"/>
<path d="M5055 6910 c-13 -14 -15 -24 -8 -31 12 -12 43 14 43 37 0 20 -14 17
-35 -6z"/>
<path d="M5145 6949 c-10 -29 1 -35 25 -14 25 23 25 35 1 35 -11 0 -23 -9 -26
-21z"/>
<path d="M5165 6910 c-13 -14 -15 -24 -8 -31 12 -12 43 14 43 37 0 20 -14 17
-35 -6z"/>
<path d="M5255 6949 c-10 -29 1 -35 25 -14 25 23 25 35 1 35 -11 0 -23 -9 -26
-21z"/>
<path d="M5275 6910 c-13 -14 -15 -24 -8 -31 12 -12 43 14 43 37 0 20 -14 17
-35 -6z"/>
<path d="M5365 6949 c-10 -29 1 -35 25 -14 25 23 25 35 1 35 -11 0 -23 -9 -26
-21z"/>
<path d="M5385 6910 c-13 -14 -15 -24 -8 -31 12 -12 43 14 43 37 0 20 -14 17
-35 -6z"/>
<path d="M5157 6774 c-4 -4 -7 -16 -7 -26 0 -14 6 -19 23 -16 14 2 22 10 22
23 0 20 -25 32 -38 19z"/>
<path d="M5267 6790 c-18 -29 -18 -30 2 -30 17 0 21 6 21 30 0 17 -1 30 -3 30
-1 0 -11 -13 -20 -30z"/>
<path d="M5370 6755 c0 -22 4 -26 23 -23 14 2 22 10 22 23 0 13 -8 21 -22 23
-19 3 -23 -1 -23 -23z"/>
<path d="M5476 6634 c-3 -8 -1 -24 5 -35 8 -16 13 -18 25 -8 21 18 18 59 -5
59 -10 0 -22 -7 -25 -16z"/>
<path d="M5377 6640 c-18 -29 -18 -30 2 -30 17 0 21 6 21 30 0 17 -1 30 -3 30
-1 0 -11 -13 -20 -30z"/>
<path d="M5266 6494 c-18 -18 -19 -24 -7 -43 13 -21 41 -5 41 23 0 32 -14 40
-34 20z"/>
<path d="M5042 6518 c7 -19 38 -22 38 -4 0 10 -9 16 -21 16 -12 0 -19 -5 -17
-12z"/>
<path d="M5043 6464 c-8 -21 13 -42 28 -27 13 13 5 43 -11 43 -6 0 -13 -7 -17
-16z"/>
<path d="M5377 6334 c-4 -4 -7 -16 -7 -26 0 -14 6 -19 23 -16 14 2 22 10 22
23 0 20 -25 32 -38 19z"/>
<path d="M5487 6350 c-18 -29 -18 -30 2 -30 17 0 21 6 21 30 0 17 -1 30 -3 30
-1 0 -11 -13 -20 -30z"/>
<path d="M5486 6054 c-18 -18 -19 -24 -7 -43 13 -21 41 -5 41 23 0 32 -14 40
-34 20z"/>
<path d="M5266 6055 c-21 -31 -20 -35 4 -35 16 0 20 7 20 30 0 36 -3 37 -24 5z"/>
<path d="M5260 5929 c-17 -31 -7 -43 19 -22 14 11 21 25 17 31 -11 18 -24 14
-36 -9z"/>
<path d="M5283 5893 c-28 -19 -30 -43 -3 -43 13 0 22 9 26 25 8 33 4 36 -23
18z"/>
<path d="M5484 5939 c-10 -17 13 -36 27 -22 12 12 4 33 -11 33 -5 0 -12 -5
-16 -11z"/>
<path d="M5487 5884 c-14 -15 -6 -34 14 -34 14 0 19 5 17 17 -3 18 -20 27 -31
17z"/>
<path d="M5476 5784 c-3 -9 -6 -22 -6 -30 0 -12 4 -12 25 2 14 9 25 23 25 30
0 19 -36 18 -44 -2z"/>
<path d="M5500 5742 c-20 -17 -23 -23 -12 -33 10 -11 15 -10 28 3 9 8 14 23
12 33 -3 16 -5 16 -28 -3z"/>
<path d="M6800 5714 c0 -9 7 -14 17 -12 25 5 28 28 4 28 -12 0 -21 -6 -21 -16z"/>
<path d="M2860 5355 l0 -215 215 0 215 0 0 215 0 215 -215 0 -215 0 0 -215z"/>
<path d="M5046 5615 c-21 -31 -20 -35 4 -35 16 0 20 7 20 30 0 36 -3 37 -24 5z"/>
<path d="M5259 5644 c-10 -12 -9 -18 3 -31 19 -18 38 -10 38 17 0 24 -25 33
-41 14z"/>
<path d="M5475 5629 c-10 -29 1 -35 25 -14 25 23 25 35 1 35 -11 0 -23 -9 -26
-21z"/>
<path d="M5495 5590 c-13 -14 -15 -24 -8 -31 12 -12 43 14 43 37 0 20 -14 17
-35 -6z"/>
<path d="M6690 5581 c0 -27 19 -36 37 -18 18 18 9 37 -18 37 -12 0 -19 -7 -19
-19z"/>
<path d="M8786 5615 c-21 -31 -20 -35 4 -35 16 0 20 7 20 30 0 36 -3 37 -24 5z"/>
<path d="M9437 5643 c-10 -9 -9 -43 1 -43 10 0 42 33 42 43 0 9 -35 9 -43 0z"/>
<path d="M9458 5596 c-20 -14 -23 -32 -9 -41 12 -7 41 22 41 41 0 17 -10 17
-32 0z"/>
<path d="M8340 5465 c-16 -19 -3 -57 18 -53 22 4 30 68 9 68 -8 0 -20 -7 -27
-15z"/>
<path d="M9000 5465 c-16 -19 -3 -57 18 -53 22 4 30 68 9 68 -8 0 -20 -7 -27
-15z"/>
<path d="M5040 5489 c-17 -31 -7 -43 19 -22 14 11 21 25 17 31 -11 18 -24 14
-36 -9z"/>
<path d="M5063 5453 c-28 -19 -30 -43 -3 -43 13 0 22 9 26 25 8 33 4 36 -23
18z"/>
<path d="M5264 5499 c-10 -17 13 -36 27 -22 12 12 4 33 -11 33 -5 0 -12 -5
-16 -11z"/>
<path d="M5267 5444 c-14 -15 -6 -34 14 -34 14 0 19 5 17 17 -3 18 -20 27 -31
17z"/>
<path d="M5487 5470 c-18 -29 -18 -30 2 -30 17 0 21 6 21 30 0 17 -1 30 -3 30
-1 0 -11 -13 -20 -30z"/>
<path d="M5916 5495 c-8 -22 1 -35 25 -35 15 0 20 6 17 22 -4 27 -33 36 -42
13z"/>
<path d="M6580 5435 c0 -18 5 -25 19 -25 24 0 33 13 25 34 -10 27 -44 20 -44
-9z"/>
<path d="M7238 5454 c-12 -11 5 -44 23 -44 22 0 31 13 23 34 -6 15 -35 22 -46
10z"/>
<path d="M7900 5495 c-6 -8 -10 -22 -8 -31 3 -15 5 -14 27 3 14 11 21 25 17
31 -10 16 -21 15 -36 -3z"/>
<path d="M7923 5453 c-28 -19 -30 -43 -3 -43 13 0 22 9 26 25 8 33 4 36 -23
18z"/>
<path d="M8122 5493 c2 -10 10 -18 18 -18 22 0 18 29 -3 33 -14 3 -18 -1 -15
-15z"/>
<path d="M8127 5444 c-14 -15 -6 -34 14 -34 14 0 19 5 17 17 -3 18 -20 27 -31
17z"/>
<path d="M8116 5314 c-8 -21 -7 -26 3 -43 13 -21 41 4 41 35 0 28 -34 34 -44
8z"/>
<path d="M8228 5454 c-12 -11 5 -44 22 -44 19 0 30 17 23 38 -5 12 -35 17 -45
6z"/>
<path d="M8562 5498 c-7 -7 -12 -20 -12 -30 0 -17 1 -18 25 -2 25 16 29 34 9
41 -5 2 -15 -2 -22 -9z"/>
<path d="M8583 5453 c-28 -19 -30 -43 -3 -43 13 0 22 9 26 25 8 33 4 36 -23
18z"/>
<path d="M8897 5470 c-18 -29 -18 -30 2 -30 17 0 21 6 21 30 0 17 -1 30 -3 30
-1 0 -11 -13 -20 -30z"/>
<path d="M9108 5454 c-12 -11 5 -44 22 -44 19 0 30 17 23 38 -5 12 -35 17 -45
6z"/>
<path d="M9447 5470 c-18 -29 -18 -30 2 -30 17 0 21 6 21 30 0 17 -1 30 -3 30
-1 0 -11 -13 -20 -30z"/>
<path d="M6140 5424 c0 -9 7 -14 17 -12 25 5 28 28 4 28 -12 0 -21 -6 -21 -16z"/>
<path d="M6800 5424 c0 -9 7 -14 17 -12 25 5 28 28 4 28 -12 0 -21 -6 -21 -16z"/>
<path d="M7460 5424 c0 -9 7 -14 17 -12 25 5 28 28 4 28 -12 0 -21 -6 -21 -16z"/>
<path d="M8780 5424 c0 -9 7 -14 17 -12 25 5 28 28 4 28 -12 0 -21 -6 -21 -16z"/>
<path d="M8336 5314 c-8 -21 -7 -26 3 -43 13 -21 41 4 41 35 0 28 -34 34 -44
8z"/>
<path d="M5482 5288 c4 -27 33 -36 42 -13 8 22 -1 35 -25 35 -15 0 -20 -6 -17
-22z"/>
<path d="M6142 5288 c4 -27 33 -36 42 -13 8 22 -1 35 -25 35 -15 0 -20 -6 -17
-22z"/>
<path d="M7016 5344 c-3 -9 -6 -22 -6 -30 0 -12 5 -12 25 3 13 10 25 24 25 31
0 18 -37 15 -44 -4z"/>
<path d="M7040 5302 c-20 -17 -23 -23 -12 -33 10 -11 15 -10 28 3 9 8 14 23
12 33 -3 16 -5 16 -28 -3z"/>
<path d="M7460 5346 c0 -15 24 -28 34 -19 13 14 5 33 -14 33 -11 0 -20 -6 -20
-14z"/>
<path d="M7460 5280 c0 -13 7 -20 20 -20 13 0 20 7 20 20 0 13 -7 20 -20 20
-13 0 -20 -7 -20 -20z"/>
<path d="M7572 5288 c4 -27 33 -36 42 -13 8 22 -1 35 -25 35 -15 0 -20 -6 -17
-22z"/>
<path d="M7675 5310 c-9 -28 13 -54 31 -39 8 6 14 22 14 35 0 31 -36 33 -45 4z"/>
<path d="M7896 5344 c-3 -9 -6 -22 -6 -30 0 -12 5 -12 25 3 13 10 25 24 25 31
0 18 -37 15 -44 -4z"/>
<path d="M7919 5301 c-20 -16 -22 -22 -11 -33 11 -11 16 -10 28 6 13 18 19 46
10 46 -2 0 -14 -9 -27 -19z"/>
<path d="M8015 5320 c-15 -29 -15 -30 5 -30 16 0 20 7 20 30 0 17 -2 30 -5 30
-2 0 -11 -13 -20 -30z"/>
<path d="M8235 5320 c-15 -29 -15 -30 5 -30 16 0 20 7 20 30 0 17 -2 30 -5 30
-2 0 -11 -13 -20 -30z"/>
<path d="M8676 5325 c-21 -31 -20 -35 4 -35 16 0 20 7 20 30 0 36 -3 37 -24 5z"/>
<path d="M8782 5343 c2 -10 10 -18 18 -18 8 0 16 8 18 18 2 12 -3 17 -18 17
-15 0 -20 -5 -18 -17z"/>
<path d="M8780 5281 c0 -15 6 -21 21 -21 25 0 22 33 -4 38 -12 2 -17 -3 -17
-17z"/>
<path d="M8887 5304 c-10 -10 12 -44 27 -44 16 0 25 19 19 38 -5 13 -35 17
-46 6z"/>
<path d="M8994 5346 c-8 -21 3 -36 27 -36 15 0 20 6 17 22 -4 27 -35 37 -44
14z"/>
<path d="M5040 5274 c0 -9 7 -14 17 -12 25 5 28 28 4 28 -12 0 -21 -6 -21 -16z"/>
<path d="M5700 5274 c0 -9 7 -14 17 -12 25 5 28 28 4 28 -12 0 -21 -6 -21 -16z"/>
<path d="M6360 5274 c0 -9 7 -14 17 -12 25 5 28 28 4 28 -12 0 -21 -6 -21 -16z"/>
<path d="M6800 5315 c0 -8 9 -15 20 -15 11 0 20 7 20 15 0 8 -9 15 -20 15 -11
0 -20 -7 -20 -15z"/>
<path d="M8560 5274 c0 -9 7 -14 17 -12 25 5 28 28 4 28 -12 0 -21 -6 -21 -16z"/>
<path d="M7466 5174 c-18 -18 -19 -24 -7 -43 13 -21 41 -5 41 23 0 32 -14 40
-34 20z"/>
<path d="M5046 5175 c-21 -31 -20 -35 4 -35 16 0 20 7 20 30 0 36 -3 37 -24 5z"/>
<path d="M5156 5175 c-21 -31 -20 -35 4 -35 16 0 20 7 20 30 0 36 -3 37 -24 5z"/>
<path d="M5493 5163 c-16 -6 -17 -39 -2 -49 6 -3 18 1 27 10 14 14 14 18 2 30
-8 7 -21 12 -27 9z"/>
<path d="M5706 5175 c-21 -31 -20 -35 4 -35 16 0 20 7 20 30 0 36 -3 37 -24 5z"/>
<path d="M6043 5163 c-16 -6 -17 -39 -2 -49 6 -3 18 1 27 10 14 14 14 18 2 30
-8 7 -21 12 -27 9z"/>
<path d="M6263 5163 c-16 -6 -17 -39 -2 -49 6 -3 18 1 27 10 14 14 14 18 2 30
-8 7 -21 12 -27 9z"/>
<path d="M6586 5175 c-21 -31 -20 -35 4 -35 16 0 20 7 20 30 0 36 -3 37 -24 5z"/>
<path d="M6690 5141 c0 -27 19 -36 37 -18 18 18 9 37 -18 37 -12 0 -19 -7 -19
-19z"/>
<path d="M6799 5204 c-10 -12 -9 -18 3 -31 19 -18 38 -10 38 17 0 24 -25 33
-41 14z"/>
<path d="M6910 5141 c0 -27 19 -36 37 -18 18 18 9 37 -18 37 -12 0 -19 -7 -19
-19z"/>
<path d="M7130 5141 c0 -27 19 -36 37 -18 18 18 9 37 -18 37 -12 0 -19 -7 -19
-19z"/>
<path d="M7895 5189 c-10 -29 1 -35 25 -14 25 23 25 35 1 35 -11 0 -23 -9 -26
-21z"/>
<path d="M7915 5150 c-13 -14 -15 -24 -8 -31 12 -12 43 14 43 37 0 20 -14 17
-35 -6z"/>
<path d="M8230 5141 c0 -27 19 -36 37 -18 18 18 9 37 -18 37 -12 0 -19 -7 -19
-19z"/>
<path d="M8446 5151 c-3 -4 1 -17 9 -27 13 -18 15 -18 31 -2 9 9 13 21 10 27
-8 13 -43 15 -50 2z"/>
<path d="M8566 5175 c-21 -31 -20 -35 4 -35 16 0 20 7 20 30 0 36 -3 37 -24 5z"/>
<path d="M8880 5152 c0 -5 6 -17 14 -28 14 -18 16 -18 32 -2 9 9 13 21 10 27
-8 13 -56 15 -56 3z"/>
<path d="M5931 5141 c-7 -5 -11 -14 -7 -19 9 -15 36 -4 36 14 0 16 -9 18 -29
5z"/>
<path d="M7247 5184 c-13 -13 -7 -24 14 -24 11 0 19 5 17 12 -5 14 -22 21 -31
12z"/>
<path d="M5047 5014 c-4 -4 -7 -16 -7 -26 0 -14 6 -19 23 -16 14 2 22 10 22
23 0 20 -25 32 -38 19z"/>
<path d="M5157 5014 c-4 -4 -7 -16 -7 -26 0 -14 6 -19 23 -16 14 2 22 10 22
23 0 20 -25 32 -38 19z"/>
<path d="M5260 4995 c0 -22 4 -26 23 -23 14 2 22 10 22 23 0 13 -8 21 -22 23
-19 3 -23 -1 -23 -23z"/>
<path d="M5370 4995 c0 -22 4 -26 23 -23 14 2 22 10 22 23 0 13 -8 21 -22 23
-19 3 -23 -1 -23 -23z"/>
<path d="M5476 5055 c-8 -22 1 -35 25 -35 15 0 20 6 17 22 -4 27 -33 36 -42
13z"/>
<path d="M5590 4995 c0 -22 4 -26 23 -23 14 2 22 10 22 23 0 13 -8 21 -22 23
-19 3 -23 -1 -23 -23z"/>
<path d="M5810 4995 c0 -18 5 -25 19 -25 24 0 33 13 25 34 -10 27 -44 20 -44
-9z"/>
<path d="M5916 5055 c-8 -22 1 -35 25 -35 15 0 20 6 17 22 -4 27 -33 36 -42
13z"/>
<path d="M6147 5030 c-18 -29 -18 -30 2 -30 17 0 21 6 21 30 0 17 -1 30 -3 30
-1 0 -11 -13 -20 -30z"/>
<path d="M6356 5055 c-8 -22 1 -35 25 -35 15 0 20 6 17 22 -4 27 -33 36 -42
13z"/>
<path d="M6580 5055 c-6 -8 -10 -22 -8 -31 3 -15 5 -14 27 3 14 11 21 25 17
31 -10 16 -21 15 -36 -3z"/>
<path d="M6603 5013 c-28 -19 -30 -43 -3 -43 13 0 22 9 26 25 8 33 4 36 -23
18z"/>
<path d="M6800 5055 c-6 -8 -10 -22 -8 -31 3 -15 5 -14 27 3 14 11 21 25 17
31 -10 16 -21 15 -36 -3z"/>
<path d="M6823 5013 c-28 -19 -30 -43 -3 -43 13 0 22 9 26 25 8 33 4 36 -23
18z"/>
<path d="M6908 5014 c-12 -11 5 -44 23 -44 22 0 31 13 23 34 -6 15 -35 22 -46
10z"/>
<path d="M7024 5059 c-10 -17 13 -36 27 -22 12 12 4 33 -11 33 -5 0 -12 -5
-16 -11z"/>
<path d="M7027 5004 c-14 -15 -6 -34 14 -34 14 0 19 5 17 17 -3 18 -20 27 -31
17z"/>
<path d="M7128 5014 c-12 -11 5 -44 23 -44 22 0 31 13 23 34 -6 15 -35 22 -46
10z"/>
<path d="M7467 5030 c-18 -29 -18 -30 2 -30 17 0 21 6 21 30 0 17 -1 30 -3 30
-1 0 -11 -13 -20 -30z"/>
<path d="M7568 5014 c-12 -11 5 -44 23 -44 22 0 31 13 23 34 -6 15 -35 22 -46
10z"/>
<path d="M7900 5055 c-6 -8 -10 -22 -8 -31 3 -15 5 -14 27 3 14 11 21 25 17
31 -10 16 -21 15 -36 -3z"/>
<path d="M7923 5013 c-28 -19 -30 -43 -3 -43 13 0 22 9 26 25 8 33 4 36 -23
18z"/>
<path d="M5707 5033 c-13 -12 -7 -23 13 -23 11 0 20 7 20 15 0 15 -21 21 -33
8z"/>
<path d="M8347 5034 c-13 -13 -7 -24 14 -24 11 0 19 5 17 12 -5 14 -22 21 -31
12z"/>
<path d="M8787 5034 c-13 -13 -7 -24 14 -24 11 0 19 5 17 12 -5 14 -22 21 -31
12z"/>
<path d="M5038 4908 c-8 -21 2 -38 23 -38 14 0 19 7 19 25 0 18 -5 25 -19 25
-10 0 -21 -6 -23 -12z"/>
<path d="M5702 4848 c4 -27 33 -36 42 -13 8 22 -1 35 -25 35 -15 0 -20 -6 -17
-22z"/>
<path d="M6362 4848 c4 -27 33 -36 42 -13 8 22 -1 35 -25 35 -15 0 -20 -6 -17
-22z"/>
<path d="M5260 4834 c0 -9 7 -14 17 -12 25 5 28 28 4 28 -12 0 -21 -6 -21 -16z"/>
<path d="M5920 4834 c0 -9 7 -14 17 -12 25 5 28 28 4 28 -12 0 -21 -6 -21 -16z"/>
<path d="M6580 4834 c0 -9 7 -14 17 -12 25 5 28 28 4 28 -12 0 -21 -6 -21 -16z"/>
<path d="M7240 4875 c0 -8 9 -15 20 -15 11 0 20 7 20 15 0 8 -9 15 -20 15 -11
0 -20 -7 -20 -15z"/>
<path d="M5156 4735 c-21 -31 -20 -35 4 -35 16 0 20 7 20 30 0 36 -3 37 -24 5z"/>
<path d="M5266 4735 c-21 -31 -20 -35 4 -35 16 0 20 7 20 30 0 36 -3 37 -24 5z"/>
<path d="M5383 4723 c-16 -6 -17 -39 -2 -49 6 -3 18 1 27 10 14 14 14 18 2 30
-8 7 -21 12 -27 9z"/>
<path d="M6359 4764 c-10 -12 -9 -18 3 -31 19 -18 38 -10 38 17 0 24 -25 33
-41 14z"/>
<path d="M6575 4749 c-10 -29 1 -35 25 -14 25 23 25 35 1 35 -11 0 -23 -9 -26
-21z"/>
<path d="M7019 4764 c-10 -12 -9 -18 3 -31 19 -18 38 -10 38 17 0 24 -25 33
-41 14z"/>
<path d="M5051 4701 c-7 -5 -11 -14 -7 -19 9 -15 36 -4 36 14 0 16 -9 18 -29
5z"/>
<path d="M5040 4609 c-17 -31 -7 -43 19 -22 14 11 21 25 17 31 -11 18 -24 14
-36 -9z"/>
<path d="M5063 4573 c-28 -19 -30 -43 -3 -43 13 0 22 9 26 25 8 33 4 36 -23
18z"/>
<path d="M5260 4609 c-17 -31 -7 -43 19 -22 14 11 21 25 17 31 -11 18 -24 14
-36 -9z"/>
<path d="M5283 4573 c-28 -19 -30 -43 -3 -43 13 0 22 9 26 25 8 33 4 36 -23
18z"/>
<path d="M5480 4609 c-17 -31 -7 -43 19 -22 14 11 21 25 17 31 -11 18 -24 14
-36 -9z"/>
<path d="M5503 4573 c-28 -19 -30 -43 -3 -43 13 0 22 9 26 25 8 33 4 36 -23
18z"/>
<path d="M5036 4464 c-3 -9 -6 -22 -6 -30 0 -12 4 -12 25 2 14 9 25 23 25 30
0 19 -36 18 -44 -2z"/>
<path d="M5060 4422 c-20 -17 -23 -23 -12 -33 10 -11 15 -10 28 3 9 8 14 23
12 33 -3 16 -5 16 -28 -3z"/>
<path d="M5256 4464 c-3 -9 -6 -22 -6 -30 0 -12 4 -12 25 2 14 9 25 23 25 30
0 19 -36 18 -44 -2z"/>
<path d="M5280 4422 c-20 -17 -23 -23 -12 -33 10 -11 15 -10 28 3 9 8 14 23
12 33 -3 16 -5 16 -28 -3z"/>
<path d="M5476 4464 c-3 -9 -6 -22 -6 -30 0 -12 4 -12 25 2 14 9 25 23 25 30
0 19 -36 18 -44 -2z"/>
<path d="M5500 4422 c-20 -17 -23 -23 -12 -33 10 -11 15 -10 28 3 9 8 14 23
12 33 -3 16 -5 16 -28 -3z"/>
<path d="M5035 4309 c-10 -29 1 -35 25 -14 25 23 25 35 1 35 -11 0 -23 -9 -26
-21z"/>
<path d="M5055 4270 c-13 -14 -15 -24 -8 -31 12 -12 43 14 43 37 0 20 -14 17
-35 -6z"/>
<path d="M5255 4309 c-10 -29 1 -35 25 -14 25 23 25 35 1 35 -11 0 -23 -9 -26
-21z"/>
<path d="M5275 4270 c-13 -14 -15 -24 -8 -31 12 -12 43 14 43 37 0 20 -14 17
-35 -6z"/>
<path d="M5475 4309 c-10 -29 1 -35 25 -14 25 23 25 35 1 35 -11 0 -23 -9 -26
-21z"/>
<path d="M5495 4270 c-13 -14 -15 -24 -8 -31 12 -12 43 14 43 37 0 20 -14 17
-35 -6z"/>
<path d="M5695 4309 c-10 -29 1 -35 25 -14 25 23 25 35 1 35 -11 0 -23 -9 -26
-21z"/>
<path d="M5715 4270 c-13 -14 -15 -24 -8 -31 12 -12 43 14 43 37 0 20 -14 17
-35 -6z"/>
<path d="M5915 4309 c-10 -29 1 -35 25 -14 25 23 25 35 1 35 -11 0 -23 -9 -26
-21z"/>
<path d="M5935 4270 c-13 -14 -15 -24 -8 -31 12 -12 43 14 43 37 0 20 -14 17
-35 -6z"/>
<path d="M5040 4169 c-17 -31 -7 -43 19 -22 14 11 21 25 17 31 -11 18 -24 14
-36 -9z"/>
<path d="M5063 4133 c-28 -19 -30 -43 -3 -43 13 0 22 9 26 25 8 33 4 36 -23
18z"/>
<path d="M5260 4169 c-17 -31 -7 -43 19 -22 14 11 21 25 17 31 -11 18 -24 14
-36 -9z"/>
<path d="M5283 4133 c-28 -19 -30 -43 -3 -43 13 0 22 9 26 25 8 33 4 36 -23
18z"/>
<path d="M5480 4169 c-17 -31 -7 -43 19 -22 14 11 21 25 17 31 -11 18 -24 14
-36 -9z"/>
<path d="M5503 4133 c-28 -19 -30 -43 -3 -43 13 0 22 9 26 25 8 33 4 36 -23
18z"/>
<path d="M5700 4175 c-6 -8 -10 -22 -8 -31 3 -15 5 -14 27 3 14 11 21 25 17
31 -10 16 -21 15 -36 -3z"/>
<path d="M5723 4133 c-28 -19 -30 -43 -3 -43 13 0 22 9 26 25 8 33 4 36 -23
18z"/>
<path d="M5920 4175 c-6 -8 -10 -22 -8 -31 3 -15 5 -14 27 3 14 11 21 25 17
31 -10 16 -21 15 -36 -3z"/>
<path d="M5943 4133 c-28 -19 -30 -43 -3 -43 13 0 22 9 26 25 8 33 4 36 -23
18z"/>
<path d="M5036 4024 c-3 -9 -6 -22 -6 -30 0 -12 4 -12 25 2 14 9 25 23 25 30
0 19 -36 18 -44 -2z"/>
<path d="M5060 3982 c-20 -17 -23 -23 -12 -33 10 -11 15 -10 28 3 9 8 14 23
12 33 -3 16 -5 16 -28 -3z"/>
<path d="M5256 4024 c-3 -9 -6 -22 -6 -30 0 -12 4 -12 25 2 14 9 25 23 25 30
0 19 -36 18 -44 -2z"/>
<path d="M5280 3982 c-20 -17 -23 -23 -12 -33 10 -11 15 -10 28 3 9 8 14 23
12 33 -3 16 -5 16 -28 -3z"/>
<path d="M5476 4024 c-3 -9 -6 -22 -6 -30 0 -12 4 -12 25 2 14 9 25 23 25 30
0 19 -36 18 -44 -2z"/>
<path d="M5500 3982 c-20 -17 -23 -23 -12 -33 10 -11 15 -10 28 3 9 8 14 23
12 33 -3 16 -5 16 -28 -3z"/>
<path d="M5696 4024 c-3 -9 -6 -22 -6 -30 0 -12 5 -12 25 3 13 10 25 24 25 31
0 18 -37 15 -44 -4z"/>
<path d="M5720 3982 c-20 -17 -23 -23 -12 -33 10 -11 15 -10 28 3 9 8 14 23
12 33 -3 16 -5 16 -28 -3z"/>
<path d="M5916 4024 c-3 -9 -6 -22 -6 -30 0 -12 5 -12 25 3 13 10 25 24 25 31
0 18 -37 15 -44 -4z"/>
<path d="M5940 3982 c-20 -17 -23 -23 -12 -33 10 -11 15 -10 28 3 9 8 14 23
12 33 -3 16 -5 16 -28 -3z"/>
<path d="M5035 3869 c-10 -29 1 -35 25 -14 25 23 25 35 1 35 -11 0 -23 -9 -26
-21z"/>
<path d="M5055 3830 c-13 -14 -15 -24 -8 -31 12 -12 43 14 43 37 0 20 -14 17
-35 -6z"/>
</g>
</svg>
